<svg xmlns="http://www.w3.org/2000/svg" version="1.1" xmlns:xlink="http://www.w3.org/1999/xlink" xmlns:svgjs="http://svgjs.dev/svgjs" width="1000" height="1000" viewBox="0 0 1000 1000"><rect width="1000" height="1000" fill="#ffffff"></rect><g transform="matrix(0.7,0,0,0.7,149.57575757575756,282.1265587044535)"><svg viewBox="0 0 396 247" data-background-color="#c8c8c8" preserveAspectRatio="xMidYMid meet" height="623" width="1000" xmlns="http://www.w3.org/2000/svg" xmlns:xlink="http://www.w3.org/1999/xlink"><g id="tight-bounds" transform="matrix(1,0,0,1,0.2400000000000091,-0.09999999999999432)"><svg viewBox="0 0 395.52 247.2" height="247.2" width="395.52"><g><svg></svg></g><g><svg viewBox="0 0 395.52 247.2" height="247.2" width="395.52"><mask id="42606918-7e1f-47f2-9aac-5f13229044ee"><rect width="395.52" height="247.2" fill="white"></rect><g transform="matrix(1,0,0,1,17.033514495345997,37.08)" id="clone"><svg viewBox="0 0 361.452971009308 173.04" height="173.04" width="361.452971009308"><g><svg viewBox="0 0 361.452971009308 173.04" height="173.04" width="361.452971009308"><g><svg viewBox="0 0 395.52 189.34906139763766" height="173.04" width="361.452971009308"><g><svg viewBox="0 0 395.52 189.34906139763766" height="189.34906139763766" width="395.52"><g id="SvgjsG1068"><svg viewBox="0 0 395.52 189.34906139763766" height="189.34906139763766" width="395.52" id="SvgjsSvg1067"><g><svg viewBox="0 0 395.52 134.79724137931032" height="134.79724137931032" width="395.52"><g transform="matrix(1,0,0,1,0,0)"><svg width="395.52" viewBox="-2.199999988079071 -38 150.33999633789062 51.900001525878906" height="134.79724137931032" data-palette-color="#000000"><path d="M20.6-4.45Q23.8-4.45 25.78-2.85 27.75-1.25 27.75 1.65L27.75 1.65Q27.75 4.45 25.65 6.55 23.55 8.65 20 9.78 16.45 10.9 12.3 10.9L12.3 10.9Q7.25 10.9 4.03 9.03 0.8 7.15 0.8 3.9L0.8 3.9Q0.8 2.45 1.58 1.18 2.35-0.1 3.55-1.05L3.55-1.05Q2.55-1.8 2.02-2.83 1.5-3.85 1.5-5L1.5-5Q1.5-6.85 2.55-8.33 3.6-9.8 5.3-10.8L5.3-10.8Q3.6-12.9 3.6-15.6L3.6-15.6Q3.6-18.3 5.18-20.25 6.75-22.2 9.2-23.2 11.65-24.2 14.2-24.2L14.2-24.2Q17.15-24.2 19.65-23.1L19.65-23.1Q20.55-25.7 22.58-27.05 24.6-28.4 27.4-28.5L27.4-28.5 27.4-24.4Q25.45-24.3 24.13-23.75 22.8-23.2 21.8-21.85L21.8-21.85Q24.9-19.5 24.9-15.75L24.9-15.75Q24.9-13.05 23.35-11.1 21.8-9.15 19.33-8.15 16.85-7.15 14.2-7.15L14.2-7.15Q10.35-7.15 7.3-9.05L7.3-9.05Q5.8-7.7 5.8-6.15L5.8-6.15Q5.8-4.85 6.83-4.13 7.85-3.4 9.65-3.4L9.65-3.4Q11.35-3.4 14.75-3.9L14.75-3.9Q16.1-4.1 17.65-4.28 19.2-4.45 20.6-4.45L20.6-4.45ZM14.25-20.7Q11.8-20.7 10.1-19.28 8.4-17.85 8.4-15.6L8.4-15.6Q8.4-13.35 10.08-12 11.75-10.65 14.25-10.65L14.25-10.65Q16.85-10.65 18.48-12.05 20.1-13.45 20.1-15.75L20.1-15.75Q20.1-18 18.43-19.35 16.75-20.7 14.25-20.7L14.25-20.7ZM13 6.85Q15.65 6.85 18.03 6.25 20.4 5.65 21.83 4.53 23.25 3.4 23.25 1.95L23.25 1.95Q23.25-0.6 19.55-0.6L19.55-0.6Q18.55-0.6 17.35-0.45 16.15-0.3 15-0.1L15-0.1Q13.6 0.15 11.98 0.35 10.35 0.55 8.8 0.55L8.8 0.55Q7.45 0.55 6.05 0.2L6.05 0.2Q5.05 1.35 5.05 2.9L5.05 2.9Q5.05 4.75 7.15 5.8 9.25 6.85 13 6.85L13 6.85ZM48.85-24.2Q51.8-24.2 54.3-22.65 56.8-21.1 58.3-18.32 59.8-15.55 59.8-12L59.8-12Q59.8-8.35 58.17-5.45 56.55-2.55 53.75-0.93 50.95 0.7 47.55 0.7L47.55 0.7Q43.1 0.7 39.35-2.7L39.35-2.7 39.35 6.95 44.8 6.95 44.8 10.9 29.3 10.9 29.3 6.95 34.55 6.95 34.55-19.6 29.3-19.6 29.3-23.55 39.35-23.55 39.35-19Q41.3-21.4 43.8-22.8 46.3-24.2 48.85-24.2L48.85-24.2ZM46.5-3.5Q48.85-3.5 50.72-4.58 52.6-5.65 53.65-7.6 54.7-9.55 54.7-12.05L54.7-12.05Q54.7-15.6 52.67-17.82 50.65-20.05 47.5-20.05L47.5-20.05Q45.35-20.05 43.25-18.75 41.15-17.45 39.35-15.15L39.35-15.15 39.35-6.4Q42.95-3.5 46.5-3.5L46.5-3.5ZM81.59-5.35L83.3-1.65Q81.45-0.55 79.67 0.05 77.9 0.65 75.59 0.65L75.59 0.65Q71.75 0.65 69.47-1.78 67.2-4.2 67.2-8.7L67.2-8.7 67.2-19.6 61.95-19.6 61.95-23.55 67.2-23.55 67.2-30.1 72.09-30.1 72.09-23.55 79.9-23.55 79.9-19.6 72.09-19.6 72.09-8.65Q72.09-6.1 73.25-4.9 74.4-3.7 76.34-3.7L76.34-3.7Q77.75-3.7 79-4.13 80.25-4.55 81.59-5.35L81.59-5.35ZM126.44-4.15L127.44-0.6Q125.79 0.4 123.59 0.4L123.59 0.4Q121.74 0.4 120.47-0.68 119.19-1.75 118.69-3.75L118.69-3.75Q113.69 0.7 108.79 0.7L108.79 0.7Q105.34 0.7 102.94-1.25 100.54-3.2 100.54-6.7L100.54-6.7Q100.54-9.1 101.89-10.88 103.24-12.65 105.52-13.58 107.79-14.5 110.44-14.5L110.44-14.5Q112.69-14.5 114.59-14.08 116.49-13.65 118.49-12.85L118.49-12.85 118.49-15.05Q118.49-17.6 116.79-18.8 115.09-20 112.34-20L112.34-20Q108.44-20 102.94-17.85L102.94-17.85 101.94-21.65Q107.84-24.15 112.94-24.15L112.94-24.15Q117.79-24.15 120.47-21.78 123.14-19.4 123.14-14.85L123.14-14.85 123.14-6.2Q123.14-3.75 124.89-3.75L124.89-3.75Q125.64-3.75 126.44-4.15L126.44-4.15ZM105.39-6.95Q105.39-5.25 106.74-4.33 108.09-3.4 110.04-3.4L110.04-3.4Q111.74-3.4 113.94-4.3 116.14-5.2 118.49-6.95L118.49-6.95 118.49-9.6Q115.09-10.8 111.29-10.9L111.29-10.9Q108.84-10.9 107.12-9.88 105.39-8.85 105.39-6.95L105.39-6.95ZM136.79-28.9Q135.19-28.9 134.09-29.75 132.99-30.6 132.99-31.9L132.99-31.9Q132.99-33.25 134.09-34.13 135.19-35 136.79-35L136.79-35Q138.49-35 139.59-34.13 140.69-33.25 140.69-31.9L140.69-31.9Q140.69-30.6 139.59-29.75 138.49-28.9 136.79-28.9L136.79-28.9ZM139.79-3.95L145.14-3.95 145.14 0 129.59 0 129.59-3.95 134.89-3.95 134.89-19.6 129.59-19.6 129.59-23.55 139.79-23.55 139.79-3.95Z" opacity="1" transform="matrix(1,0,0,1,0,0)" fill="black" class="wordmark-text-0" id="SvgjsPath1066" stroke-width="5" stroke="black" stroke-linejoin="round"></path></svg></g></svg></g><g transform="matrix(1,0,0,1,2.5,152.53515899586205)"><svg viewBox="0 0 390.52 36.81390240177562" height="36.81390240177562" width="390.52"><g transform="matrix(1,0,0,1,0,0)"><svg width="390.52" viewBox="-1.1699999570846558 -42.060001373291016 480.5500183105469 46.21000289916992" height="36.81390240177562" data-palette-color="#000000"><path d="M10.99 0.49L10.99 0.49Q9.38 0.49 8.13-0.29L8.13-0.29Q6.88 0.49 5.82 0.49 4.76 0.49 4.08 0.31 3.39 0.12 2.88-0.2L2.88-0.2Q1.83-0.83 1.83-1.78L1.83-1.78Q1.83-2.27 2.1-2.64L2.1-2.64Q2.64-2.22 3.47-2.22L3.47-2.22Q5.64-2.22 6.47-4.08L6.47-4.08 6.47-16.02Q6.47-17.14 6.01-17.68L6.01-17.68Q5.27-18.58 3.49-19.46L3.49-19.46Q5.15-20.21 5.64-20.8L5.64-20.8Q6.47-21.75 6.47-22.95L6.47-22.95 6.47-33.25Q5.64-35.13 3.47-35.13L3.47-35.13Q2.64-35.13 2.1-34.72L2.1-34.72Q1.83-35.08 1.83-35.56 1.83-36.04 2.11-36.45 2.39-36.87 2.88-37.16L2.88-37.16Q4-37.84 5.46-37.84 6.91-37.84 8.13-37.04L8.13-37.04Q9.4-37.84 10.96-37.84 12.52-37.84 13.79-37.04L13.79-37.04Q15.16-37.84 16.28-37.84 17.41-37.84 18.09-37.66 18.77-37.48 19.29-37.16L19.29-37.16Q20.34-36.52 20.34-35.57L20.34-35.57Q20.34-35.08 20.07-34.72L20.07-34.72Q19.53-35.13 18.63-35.13 17.72-35.13 16.81-34.66 15.89-34.18 15.45-33.23L15.45-33.23 15.45-22.95Q15.45-21.75 15.97-21.17L15.97-21.17Q16.77-20.21 18.43-19.46L18.43-19.46Q16.65-18.58 16.16-18.02L16.16-18.02Q15.45-17.14 15.45-16.02L15.45-16.02 15.45-5.35Q17.07-2.78 19.48-2.78L19.48-2.78Q25.46-2.78 27.17-7.86L27.17-7.86Q27.93-10.11 27.93-11.98 27.93-13.84 27.42-14.48L27.42-14.48Q27.98-14.94 28.58-14.94 29.17-14.94 29.69-14.7 30.2-14.45 30.62-13.96L30.62-13.96Q31.47-12.96 31.47-11.6 31.47-10.23 31.25-9.5L31.25-9.5Q32.37-8.57 32.37-6.88 32.37-5.2 31.42-4.15L31.42-4.15Q32.23-3.13 32.23-2.29 32.23-1.46 31.99-0.87 31.76-0.27 31.35 0.2L31.35 0.2Q30.42 1.15 29.13 1.15L29.13 1.15Q28.49 1.15 27.95 0.88L27.95 0.88Q28.05 0.34 28.05-0.2L28.05-0.2Q28.05-1.32 27.03-1.32L27.03-1.32Q26.27-1.32 24.93-0.71L24.93-0.71Q22.34 0.49 19.03 0.49 15.72 0.49 13.87-0.37L13.87-0.37Q12.6 0.49 10.99 0.49ZM8.81-9.64L8.81-6.47Q10.03-6.93 10.16-9.67L10.16-9.67Q10.3-12.4 10.3-17.24 10.3-22.07 10.29-23.67 10.28-25.27 10.25-26.25L10.25-26.25Q10.18-29.13 9.7-29.72 9.23-30.32 8.81-30.52L8.81-30.52Q8.81-22.02 8.52-20.85L8.52-20.85Q8.18-19.87 6.86-19.46L6.86-19.46Q8.33-18.95 8.52-18.21L8.52-18.21Q8.81-17.04 8.81-9.64L8.81-9.64ZM56.54-7.37L56.54-7.37Q57.08-8.4 58.52-8.4L58.52-8.4Q59.49-8.4 60.03-7.59L60.03-7.59Q60.47-6.96 60.47-6.04 60.47-5.13 60.01-4.2 59.54-3.27 58.74-2.51 57.93-1.76 56.89-1.17 55.86-0.59 54.69-0.2L54.69-0.2Q52.27 0.61 49.66 0.61 47.04 0.61 44.76-0.26 42.48-1.12 40.84-2.69L40.84-2.69Q37.64-5.76 36.94-11.13L36.94-11.13Q36.77-12.33 36.37-12.84L36.37-12.84Q35.64-13.75 33.96-14.58L33.96-14.58Q36.08-15.53 36.67-17.63L36.67-17.63Q36.84-18.21 36.94-18.8L36.94-18.8Q37.55-23.1 41.28-26.12L41.28-26.12Q44.89-29.05 49.36-29.05L49.36-29.05Q54-29.05 57.39-25.78L57.39-25.78Q60.91-22.41 60.91-17.5L60.91-17.5Q60.91-17.33 60.9-17.16 60.89-16.99 60.91-16.85L60.91-16.85Q60.96-16.53 61.3-16.48L61.3-16.48Q61.74-15.92 61.74-15.28L61.74-15.28Q61.74-13.82 60.18-13.55L60.18-13.55Q59.79-13.48 58.96-13.35L58.96-13.35 45.19-11.16 45.19-8.81Q45.19-5.98 46.9-4.32L46.9-4.32Q48.51-2.73 50.97-2.73L50.97-2.73Q53.59-2.73 55.17-3.81L55.17-3.81Q56.66-4.83 56.66-6.49L56.66-6.49Q56.66-6.88 56.54-7.37ZM45.19-14.11L52.27-15.26 52.27-22.09Q52.27-23.71 51.63-24.46L51.63-24.46Q50.51-25.76 49.41-25.76 48.31-25.76 47.58-25.43 46.85-25.1 46.31-24.39L46.31-24.39Q45.19-22.9 45.19-19.75L45.19-19.75 45.19-14.11ZM54.37-15.63L55.88-15.87 55.88-16.63Q55.88-21.17 55.12-22.12L55.12-22.12Q54.78-22.53 54.37-22.73L54.37-22.73 54.37-15.63ZM41.21-6.47L41.21-6.47Q41.55-6.74 41.55-7.08L41.55-7.08Q41.55-7.62 41.33-8.45L41.33-8.45Q40.33-12.28 40.33-13.78 40.33-15.28 40.43-16.13 40.52-16.97 40.7-17.82L40.7-17.82Q40.99-19.48 41.33-20.75L41.33-20.75Q41.55-21.58 41.55-21.88L41.55-21.88Q41.55-22.46 41.21-22.73L41.21-22.73Q40.18-21.51 39.65-19.46 39.11-17.41 38.77-15.84L38.77-15.84Q38.64-15.19 37.33-14.58L37.33-14.58Q38.64-13.96 38.77-13.35L38.77-13.35Q39.67-9.23 40.26-8.11 40.84-6.98 41.21-6.47ZM82-2.32L82-2.32Q79.78 0.61 75.34 0.61L75.34 0.61Q69.92 0.61 67.21-2.64L67.21-2.64Q66.04-4.03 65.6-5.74L65.6-5.74Q65.35-6.76 64.74-7.31 64.13-7.86 63.23-8.3L63.23-8.3Q64.99-9.11 65.74-11.33L65.74-11.33Q66.55-13.67 68.43-14.72L68.43-14.72Q70.45-15.82 72.9-15.88 75.34-15.94 76.51-16.04 77.68-16.14 78.58-16.36L78.58-16.36Q80.27-16.75 81.22-17.8L81.22-17.8 81.22-21.46Q81.22-23.88 80.23-25 79.24-26.12 77.23-26.12 75.21-26.12 74.25-25.38 73.29-24.63 73.29-23.39L73.29-23.39Q73.29-21.48 75.24-21.53L75.24-21.53Q74.85-19.63 73.19-19.63L73.19-19.63Q72.7-19.63 72.24-19.8L72.24-19.8 72.24-19.73Q72.24-19.09 72.82-18.92L72.82-18.92Q72.21-17.99 70.77-18.02 69.33-18.04 68.53-19.56L68.53-19.56Q68.16-19.46 67.68-19.46 67.21-19.46 66.63-19.78 66.06-20.09 65.72-20.65L65.72-20.65Q66.94-21.39 67.21-22.92L67.21-22.92Q67.5-24.8 70.21-26.73L70.21-26.73Q73.48-29.05 78.56-29.05L78.56-29.05Q86.98-29.05 88.84-23.88L88.84-23.88Q89.45-22.14 89.45-19.78L89.45-19.78 89.45-17.8Q89.45-16.6 90.05-15.84 90.64-15.09 92.08-14.6L92.08-14.6Q90.55-13.89 90.11-13.33L90.11-13.33Q89.45-12.48 89.45-11.38L89.45-11.38 89.45-4.05Q90.16-2.22 91.47-2.22L91.47-2.22Q92.3-2.22 92.84-2.64L92.84-2.64Q93.18-2.17 93.18-1.48 93.18-0.78 92.49-0.15 91.79 0.49 90.4 0.49 89.01 0.49 87.81-0.29L87.81-0.29Q86.76 0.49 85.94 0.49 85.13 0.49 84.53 0.33 83.93 0.17 83.42-0.17L83.42-0.17Q82.27-0.93 82-2.32ZM83.54-22.73L83.54-6.47Q84.96-7.03 85.03-11.87L85.03-11.87Q85.03-12.89 85.03-14.21 85.03-15.53 85.02-16.47 85-17.41 84.98-18.26L84.98-18.26Q84.88-21.34 84.42-21.94 83.95-22.53 83.54-22.73L83.54-22.73ZM74.53-8.2L74.53-8.2Q74.53-7.18 74.75-6.2 74.97-5.22 75.41-4.49L75.41-4.49Q76.39-2.95 78.17-2.95L78.17-2.95Q79.51-2.95 80.39-4.05L80.39-4.05Q81.22-5.13 81.22-6.81L81.22-6.81 81.22-14.77Q79.66-13.87 77.22-13.53L77.22-13.53Q74.53-13.11 74.53-8.2ZM70.87-2.71L70.87-2.71Q71.11-2.88 71.11-3.15L71.11-3.15Q71.11-3.52 70.77-4.17L70.77-4.17Q69.55-6.42 69.55-7.86 69.55-9.3 69.66-9.94 69.77-10.57 69.95-11.02 70.14-11.47 70.37-11.82 70.6-12.16 70.77-12.43L70.77-12.43Q71.09-12.99 71.09-13.2 71.09-13.4 70.87-13.55L70.87-13.55Q69.87-13.09 69.4-12.45L69.4-12.45Q68.57-11.33 68.18-9.55L68.18-9.55Q68.09-9.03 66.47-8.3L66.47-8.3Q68.04-7.59 68.18-7.06L68.18-7.06Q69.01-4.15 70.87-2.71ZM100.75-0.29L100.75-0.29Q99.63 0.49 98.19 0.49 96.75 0.49 96.1-0.18 95.45-0.85 95.45-1.46L95.45-1.46Q95.45-2.27 95.72-2.64L95.72-2.64Q96.26-2.22 97.09-2.22L97.09-2.22Q98.65-2.22 99.11-3.74L99.11-3.74 99.11-11.13Q99.11-12.26 98.67-12.79L98.67-12.79Q97.89-13.75 96.14-14.6L96.14-14.6Q99.11-15.97 99.11-18.8L99.11-18.8 99.11-21.36Q99.11-23.44 97.7-23.61L97.7-23.61Q97.28-23.66 96.65-23.66 96.01-23.66 95.48-23.24L95.48-23.24Q95.13-23.71 95.13-24.21 95.13-24.71 95.39-25.33 95.65-25.95 96.18-26.51L96.18-26.51Q97.45-27.83 99.15-27.83 100.85-27.83 101.97-27.29L101.97-27.29Q103.31-28.81 104.85-28.81L104.85-28.81Q107.24-28.81 107.24-26.17L107.24-26.17 107.24-22.83Q109.68-28.83 115.01-28.83L115.01-28.83Q117.4-28.83 118.89-27.37L118.89-27.37Q120.43-25.88 120.43-23.24L120.43-23.24 120.43-22.9Q120.43-22.73 120.38-22.2 120.33-21.68 120.41-21.14 120.5-20.61 120.7-20.26L120.7-20.26Q120.96-19.75 121.7-19.46L121.7-19.46Q121.53-18.8 120.9-18.27 120.28-17.75 119.52-17.75L119.52-17.75 119.06-17.75Q118.11-16.55 116.4-16.06L116.4-16.06Q115.91-15.92 115.34-15.92 114.76-15.92 114.34-16.17 113.91-16.43 113.86-16.72L113.86-16.72Q114.32-16.94 114.32-17.6L114.32-17.6 114.32-17.72Q114.13-17.68 113.98-17.68L113.98-17.68 113.74-17.68Q112.93-17.68 112.28-18.29 111.64-18.9 111.44-19.82L111.44-19.82Q112.76-19.78 113.74-20.8L113.74-20.8Q114.62-21.7 114.62-22.66L114.62-22.66Q114.62-24.9 112.66-24.9L112.66-24.9Q110.98-24.9 109.27-22.22L109.27-22.22Q107.66-19.75 107.24-17.11L107.24-17.11 107.24-3.91Q107.51-3.05 108.07-2.64 108.64-2.22 109.61-2.22 110.59-2.22 111.13-2.64L111.13-2.64Q111.39-2.27 111.39-1.56 111.39-0.85 110.75-0.18 110.1 0.49 108.57 0.49 107.05 0.49 105.66-0.34L105.66-0.34Q104.68 0.49 103.29 0.49 101.9 0.49 100.75-0.29ZM102.86-11.88Q102.87-12.7 102.89-13.26 102.9-13.82 102.9-14.16L102.9-14.16 102.9-14.82Q102.9-15.19 102.89-15.76 102.87-16.33 102.86-17.05 102.85-17.77 102.82-18.46L102.82-18.46Q102.68-21 102.28-21.72 101.87-22.44 101.46-22.71L101.46-22.71 101.46-21.12Q101.46-17.02 101.27-16.3 101.09-15.58 100.69-15.22 100.29-14.87 99.5-14.6L99.5-14.6Q100.97-14.09 101.16-13.35L101.16-13.35Q101.46-12.18 101.46-8.08L101.46-8.08 101.46-6.49Q102.58-7.23 102.73-9.47L102.73-9.47Q102.85-11.06 102.86-11.88ZM127.7-0.29L127.7-0.29Q126.58 0.49 125.14 0.49 123.7 0.49 123.05-0.18 122.4-0.85 122.4-1.46L122.4-1.46Q122.4-2.27 122.67-2.64L122.67-2.64Q123.21-2.22 124.04-2.22L124.04-2.22Q125.6-2.22 126.06-3.74L126.06-3.74 126.06-11.33Q126.06-12.4 125.6-12.89L125.6-12.89Q124.89-13.7 123.09-14.58L123.09-14.58Q124.79-15.36 125.26-15.82L125.26-15.82Q126.06-16.63 126.06-17.8L126.06-17.8 126.06-21.36Q126.06-23.44 124.65-23.61L124.65-23.61Q124.23-23.66 123.6-23.66 122.96-23.66 122.43-23.24L122.43-23.24Q122.08-23.71 122.08-24.21 122.08-24.71 122.34-25.33 122.6-25.95 123.11-26.51L123.11-26.51Q124.4-27.83 126.1-27.83 127.8-27.83 128.92-27.29L128.92-27.29Q130.26-28.81 131.66-28.81 133.05-28.81 133.58-28.16 134.12-27.51 134.12-26.17L134.12-26.17 134.12-23.88Q135.39-26.15 137.59-27.48 139.78-28.81 142.25-28.81 144.72-28.81 146.22-28.16 147.72-27.51 148.7-26.32L148.7-26.32Q150.6-23.95 150.6-19.43L150.6-19.43 150.6-17.82Q150.6-16.65 151.11-16.14L151.11-16.14Q151.87-15.36 153.58-14.58L153.58-14.58Q151.75-13.67 151.28-13.21L151.28-13.21Q150.6-12.45 150.6-11.38L150.6-11.38 150.6-3.74Q151.06-2.22 152.63-2.22L152.63-2.22Q153.46-2.22 153.99-2.64L153.99-2.64Q154.26-2.27 154.26-1.56 154.26-0.85 153.62-0.18 152.97 0.49 151.63 0.49 150.28 0.49 149.18-0.27L149.18-0.27Q148.21 0.49 146.9 0.49 145.6 0.49 144.57-0.24L144.57-0.24Q143.5 0.49 142.28 0.49 141.05 0.49 140.35-0.12 139.64-0.73 139.64-1.88L139.64-1.88Q139.64-2.42 140-2.73L140-2.73Q140.57-2.29 141.13-2.29L141.13-2.29Q142.2-2.29 142.67-3.49L142.67-3.49 142.67-18.04Q142.67-22.78 140.35-23.54L140.35-23.54Q139.59-23.78 138.71-23.78 137.83-23.78 137.07-23.43 136.32-23.07 135.71-22.44L135.71-22.44Q134.37-21.02 134.12-19.07L134.12-19.07 134.12-3.49Q134.58-2.29 135.66-2.29L135.66-2.29Q136.22-2.29 136.78-2.73L136.78-2.73Q137.15-2.42 137.15-1.57 137.15-0.73 136.44-0.12 135.73 0.49 134.57 0.49 133.41 0.49 132.46-0.24L132.46-0.24Q131.53 0.49 130.19 0.49 128.85 0.49 127.7-0.29ZM145.01-15.77L145.01-6.47Q146.23-6.93 146.35-9.67L146.35-9.67Q146.5-12.4 146.5-14.82 146.5-17.24 146.3-18.81 146.11-20.39 145.74-21.28 145.38-22.17 144.88-22.57 144.37-22.97 143.79-23.27L143.79-23.27Q144.72-21.07 144.86-19.26 145.01-17.46 145.01-15.77L145.01-15.77ZM129.81-11.87Q129.82-12.67 129.84-13.22 129.85-13.77 129.85-14.11 129.85-14.45 129.85-14.81 129.85-15.16 129.84-15.75 129.82-16.33 129.81-17.04 129.8-17.75 129.75-18.43L129.75-18.43Q129.68-20.12 129.53-20.75L129.53-20.75Q129.24-22.17 128.41-22.71L128.41-22.71 128.41-21.12Q128.41-17.02 128.22-16.3 128.04-15.58 127.64-15.21 127.24-14.84 126.45-14.58L126.45-14.58Q127.92-14.06 128.12-13.35L128.12-13.35Q128.41-12.18 128.41-8.08L128.41-8.08 128.41-6.49Q129.53-7.23 129.7-9.47L129.7-9.47Q129.8-11.06 129.81-11.87ZM186.17-2.32L186.17-2.32Q183.94 0.61 179.5 0.61L179.5 0.61Q174.08 0.61 171.37-2.64L171.37-2.64Q170.2-4.03 169.76-5.74L169.76-5.74Q169.52-6.76 168.91-7.31 168.3-7.86 167.39-8.3L167.39-8.3Q169.15-9.11 169.91-11.33L169.91-11.33Q170.71-13.67 172.59-14.72L172.59-14.72Q174.62-15.82 177.06-15.88 179.5-15.94 180.67-16.04 181.85-16.14 182.75-16.36L182.75-16.36Q184.43-16.75 185.39-17.8L185.39-17.8 185.39-21.46Q185.39-23.88 184.4-25 183.41-26.12 181.39-26.12 179.38-26.12 178.42-25.38 177.45-24.63 177.45-23.39L177.45-23.39Q177.45-21.48 179.4-21.53L179.4-21.53Q179.01-19.63 177.35-19.63L177.35-19.63Q176.86-19.63 176.4-19.8L176.4-19.8 176.4-19.73Q176.4-19.09 176.99-18.92L176.99-18.92Q176.38-17.99 174.94-18.02 173.5-18.04 172.69-19.56L172.69-19.56Q172.32-19.46 171.85-19.46 171.37-19.46 170.8-19.78 170.22-20.09 169.88-20.65L169.88-20.65Q171.1-21.39 171.37-22.92L171.37-22.92Q171.66-24.8 174.37-26.73L174.37-26.73Q177.65-29.05 182.72-29.05L182.72-29.05Q191.15-29.05 193-23.88L193-23.88Q193.61-22.14 193.61-19.78L193.61-19.78 193.61-17.8Q193.61-16.6 194.21-15.84 194.81-15.09 196.25-14.6L196.25-14.6Q194.71-13.89 194.27-13.33L194.27-13.33Q193.61-12.48 193.61-11.38L193.61-11.38 193.61-4.05Q194.32-2.22 195.64-2.22L195.64-2.22Q196.47-2.22 197.01-2.64L197.01-2.64Q197.35-2.17 197.35-1.48 197.35-0.78 196.65-0.15 195.96 0.49 194.57 0.49 193.17 0.49 191.98-0.29L191.98-0.29Q190.93 0.49 190.11 0.49 189.29 0.49 188.69 0.33 188.1 0.17 187.58-0.17L187.58-0.17Q186.44-0.93 186.17-2.32ZM187.7-22.73L187.7-6.47Q189.12-7.03 189.19-11.87L189.19-11.87Q189.19-12.89 189.19-14.21 189.19-15.53 189.18-16.47 189.17-17.41 189.15-18.26L189.15-18.26Q189.05-21.34 188.58-21.94 188.12-22.53 187.7-22.73L187.7-22.73ZM178.7-8.2L178.7-8.2Q178.7-7.18 178.92-6.2 179.14-5.22 179.57-4.49L179.57-4.49Q180.55-2.95 182.33-2.95L182.33-2.95Q183.68-2.95 184.56-4.05L184.56-4.05Q185.39-5.13 185.39-6.81L185.39-6.81 185.39-14.77Q183.82-13.87 181.38-13.53L181.38-13.53Q178.7-13.11 178.7-8.2ZM175.03-2.71L175.03-2.71Q175.28-2.88 175.28-3.15L175.28-3.15Q175.28-3.52 174.94-4.17L174.94-4.17Q173.72-6.42 173.72-7.86 173.72-9.3 173.83-9.94 173.94-10.57 174.12-11.02 174.3-11.47 174.53-11.82 174.77-12.16 174.94-12.43L174.94-12.43Q175.25-12.99 175.25-13.2 175.25-13.4 175.03-13.55L175.03-13.55Q174.03-13.09 173.57-12.45L173.57-12.45Q172.74-11.33 172.35-9.55L172.35-9.55Q172.25-9.03 170.64-8.3L170.64-8.3Q172.2-7.59 172.35-7.06L172.35-7.06Q173.18-4.15 175.03-2.71ZM204.99-0.29L204.99-0.29Q203.86 0.49 202.42 0.49 200.98 0.49 200.34-0.18 199.69-0.85 199.69-1.46L199.69-1.46Q199.69-2.27 199.96-2.64L199.96-2.64Q200.5-2.22 201.33-2.22L201.33-2.22Q202.89-2.22 203.35-3.74L203.35-3.74 203.35-11.33Q203.35-12.4 202.89-12.89L202.89-12.89Q202.18-13.7 200.37-14.58L200.37-14.58Q202.08-15.36 202.55-15.82L202.55-15.82Q203.35-16.63 203.35-17.8L203.35-17.8 203.35-21.36Q203.35-23.44 201.94-23.61L201.94-23.61Q201.52-23.66 200.89-23.66 200.25-23.66 199.71-23.24L199.71-23.24Q199.37-23.71 199.37-24.21 199.37-24.71 199.63-25.33 199.88-25.95 200.4-26.51L200.4-26.51Q201.69-27.83 203.39-27.83 205.09-27.83 206.21-27.29L206.21-27.29Q207.55-28.81 208.94-28.81 210.33-28.81 210.87-28.16 211.41-27.51 211.41-26.17L211.41-26.17 211.41-23.88Q212.68-26.15 214.88-27.48 217.07-28.81 219.54-28.81 222-28.81 223.51-28.16 225.01-27.51 225.98-26.32L225.98-26.32Q227.89-23.95 227.89-19.43L227.89-19.43 227.89-17.82Q227.89-16.65 228.4-16.14L228.4-16.14Q229.16-15.36 230.87-14.58L230.87-14.58Q229.04-13.67 228.57-13.21L228.57-13.21Q227.89-12.45 227.89-11.38L227.89-11.38 227.89-3.74Q228.35-2.22 229.91-2.22L229.91-2.22Q230.74-2.22 231.28-2.64L231.28-2.64Q231.55-2.27 231.55-1.56 231.55-0.85 230.9-0.18 230.26 0.49 228.91 0.49 227.57 0.49 226.47-0.27L226.47-0.27Q225.5 0.49 224.19 0.49 222.88 0.49 221.86-0.24L221.86-0.24Q220.78 0.49 219.56 0.49 218.34 0.49 217.63-0.12 216.93-0.73 216.93-1.88L216.93-1.88Q216.93-2.42 217.29-2.73L217.29-2.73Q217.85-2.29 218.42-2.29L218.42-2.29Q219.49-2.29 219.95-3.49L219.95-3.49 219.95-18.04Q219.95-22.78 217.63-23.54L217.63-23.54Q216.88-23.78 216-23.78 215.12-23.78 214.36-23.43 213.61-23.07 213-22.44L213-22.44Q211.65-21.02 211.41-19.07L211.41-19.07 211.41-3.49Q211.87-2.29 212.95-2.29L212.95-2.29Q213.51-2.29 214.07-2.73L214.07-2.73Q214.44-2.42 214.44-1.57 214.44-0.73 213.73-0.12 213.02 0.49 211.86 0.49 210.7 0.49 209.75-0.24L209.75-0.24Q208.82 0.49 207.48 0.49 206.13 0.49 204.99-0.29ZM222.3-15.77L222.3-6.47Q223.52-6.93 223.64-9.67L223.64-9.67Q223.79-12.4 223.79-14.82 223.79-17.24 223.59-18.81 223.4-20.39 223.03-21.28 222.66-22.17 222.16-22.57 221.66-22.97 221.08-23.27L221.08-23.27Q222-21.07 222.15-19.26 222.3-17.46 222.3-15.77L222.3-15.77ZM207.1-11.87Q207.11-12.67 207.12-13.22 207.14-13.77 207.14-14.11 207.14-14.45 207.14-14.81 207.14-15.16 207.12-15.75 207.11-16.33 207.1-17.04 207.09-17.75 207.04-18.43L207.04-18.43Q206.96-20.12 206.82-20.75L206.82-20.75Q206.53-22.17 205.7-22.71L205.7-22.71 205.7-21.12Q205.7-17.02 205.51-16.3 205.33-15.58 204.93-15.21 204.52-14.84 203.74-14.58L203.74-14.58Q205.21-14.06 205.4-13.35L205.4-13.35Q205.7-12.18 205.7-8.08L205.7-8.08 205.7-6.49Q206.82-7.23 206.99-9.47L206.99-9.47Q207.09-11.06 207.1-11.87ZM257.04 0.49L257.04 0.49Q254.55 0.49 253.15-2.2L253.15-2.2Q251.42-0.2 248.52 0.44L248.52 0.44Q247.66 0.61 246.83 0.61L246.83 0.61Q241.7 0.61 238.87-2.64L238.87-2.64Q236.28-5.64 235.97-11.13L235.97-11.13Q235.92-12.21 235.48-12.77L235.48-12.77Q234.75-13.7 232.99-14.55L232.99-14.55Q235.87-15.87 235.99-18.6 236.11-21.34 236.96-23.28 237.8-25.22 239.21-26.46L239.21-26.46Q241.92-28.81 246.78-28.81L246.78-28.81Q249.44-28.81 251.4-27.44L251.4-27.44Q252.06-26.98 252.52-26.37L252.52-26.37 252.52-31.62Q252.52-34.4 250.25-34.4L250.25-34.4Q249.42-34.4 248.88-33.98L248.88-33.98Q248.54-34.45 248.54-34.95 248.54-35.45 248.8-35.91 249.05-36.38 249.59-36.77L249.59-36.77Q250.74-37.6 252.49-37.6 254.25-37.6 255.23-37.38L255.23-37.38Q256.57-39.06 258.26-39.06L258.26-39.06Q260.77-39.06 260.77-36.43L260.77-36.43 260.77-17.8Q260.77-15.94 263.75-14.58L263.75-14.58Q260.77-13.23 260.77-11.38L260.77-11.38 260.77-4.05Q261.48-2.22 262.8-2.22L262.8-2.22Q263.63-2.22 264.16-2.64L264.16-2.64Q264.51-2.17 264.51-1.48 264.51-0.78 263.81-0.15 263.11 0.49 261.72 0.49 260.33 0.49 259.14-0.29L259.14-0.29Q258.09 0.49 257.04 0.49ZM254.86-30.52L254.86-6.47Q256.08-6.93 256.18-9.38L256.18-9.38Q256.21-9.94 256.22-10.75 256.23-11.57 256.25-12.57 256.28-13.57 256.28-14.6L256.28-14.6 256.33-16.55Q256.33-17.5 256.34-18.23 256.35-18.95 256.35-19.36L256.35-19.36 256.35-19.73Q256.35-19.8 256.34-20.42 256.33-21.04 256.32-21.96 256.3-22.88 256.28-23.93L256.28-23.93 256.23-25.98Q256.18-28.22 256.06-28.83L256.06-28.83Q255.86-30.05 254.86-30.52L254.86-30.52ZM248.12-25.24L248.12-25.24Q244.22-25.24 244.22-19.51L244.22-19.51 244.22-8.81Q244.22-4.35 247.17-3.27L247.17-3.27Q248-2.95 248.82-2.95 249.64-2.95 250.31-3.28 250.98-3.61 251.47-4.15L251.47-4.15Q252.52-5.35 252.52-7.01L252.52-7.01 252.52-19.51Q252.52-24 249.78-24.95L249.78-24.95Q248.98-25.24 248.12-25.24ZM240.24-6.47L240.24-6.47Q240.58-6.74 240.58-7.08L240.58-7.08Q240.58-7.62 240.36-8.45L240.36-8.45Q239.36-12.28 239.36-13.76 239.36-15.23 239.46-16.09 239.56-16.94 239.73-17.77L239.73-17.77Q240.04-19.53 240.36-20.75L240.36-20.75Q240.58-21.58 240.58-21.88L240.58-21.88Q240.58-22.46 240.24-22.73L240.24-22.73Q239.21-21.51 238.68-19.43 238.14-17.36 237.8-15.8L237.8-15.8Q237.68-15.16 236.36-14.55L236.36-14.55Q237.68-13.94 237.8-13.31L237.8-13.31Q238.7-9.18 239.29-8.08 239.87-6.98 240.24-6.47ZM296.8-2.32L296.8-2.32Q294.58 0.61 290.14 0.61L290.14 0.61Q284.72 0.61 282.01-2.64L282.01-2.64Q280.83-4.03 280.39-5.74L280.39-5.74Q280.15-6.76 279.54-7.31 278.93-7.86 278.03-8.3L278.03-8.3Q279.78-9.11 280.54-11.33L280.54-11.33Q281.35-13.67 283.23-14.72L283.23-14.72Q285.25-15.82 287.69-15.88 290.14-15.94 291.31-16.04 292.48-16.14 293.38-16.36L293.38-16.36Q295.07-16.75 296.02-17.8L296.02-17.8 296.02-21.46Q296.02-23.88 295.03-25 294.04-26.12 292.03-26.12 290.01-26.12 289.05-25.38 288.09-24.63 288.09-23.39L288.09-23.39Q288.09-21.48 290.04-21.53L290.04-21.53Q289.65-19.63 287.99-19.63L287.99-19.63Q287.5-19.63 287.04-19.8L287.04-19.8 287.04-19.73Q287.04-19.09 287.62-18.92L287.62-18.92Q287.01-17.99 285.57-18.02 284.13-18.04 283.32-19.56L283.32-19.56Q282.96-19.46 282.48-19.46 282.01-19.46 281.43-19.78 280.86-20.09 280.52-20.65L280.52-20.65Q281.74-21.39 282.01-22.92L282.01-22.92Q282.3-24.8 285.01-26.73L285.01-26.73Q288.28-29.05 293.36-29.05L293.36-29.05Q301.78-29.05 303.64-23.88L303.64-23.88Q304.25-22.14 304.25-19.78L304.25-19.78 304.25-17.8Q304.25-16.6 304.85-15.84 305.44-15.09 306.88-14.6L306.88-14.6Q305.35-13.89 304.91-13.33L304.91-13.33Q304.25-12.48 304.25-11.38L304.25-11.38 304.25-4.05Q304.96-2.22 306.27-2.22L306.27-2.22Q307.1-2.22 307.64-2.64L307.64-2.64Q307.98-2.17 307.98-1.48 307.98-0.78 307.29-0.15 306.59 0.49 305.2 0.49 303.81 0.49 302.61-0.29L302.61-0.29Q301.56 0.49 300.74 0.49 299.93 0.49 299.33 0.33 298.73 0.17 298.22-0.17L298.22-0.17Q297.07-0.93 296.8-2.32ZM298.34-22.73L298.34-6.47Q299.76-7.03 299.83-11.87L299.83-11.87Q299.83-12.89 299.83-14.21 299.83-15.53 299.82-16.47 299.8-17.41 299.78-18.26L299.78-18.26Q299.68-21.34 299.22-21.94 298.75-22.53 298.34-22.73L298.34-22.73ZM289.33-8.2L289.33-8.2Q289.33-7.18 289.55-6.2 289.77-5.22 290.21-4.49L290.21-4.49Q291.19-2.95 292.97-2.95L292.97-2.95Q294.31-2.95 295.19-4.05L295.19-4.05Q296.02-5.13 296.02-6.81L296.02-6.81 296.02-14.77Q294.46-13.87 292.02-13.53L292.02-13.53Q289.33-13.11 289.33-8.2ZM285.67-2.71L285.67-2.71Q285.91-2.88 285.91-3.15L285.91-3.15Q285.91-3.52 285.57-4.17L285.57-4.17Q284.35-6.42 284.35-7.86 284.35-9.3 284.46-9.94 284.57-10.57 284.75-11.02 284.94-11.47 285.17-11.82 285.4-12.16 285.57-12.43L285.57-12.43Q285.89-12.99 285.89-13.2 285.89-13.4 285.67-13.55L285.67-13.55Q284.67-13.09 284.2-12.45L284.2-12.45Q283.37-11.33 282.98-9.55L282.98-9.55Q282.89-9.03 281.27-8.3L281.27-8.3Q282.84-7.59 282.98-7.06L282.98-7.06Q283.81-4.15 285.67-2.71ZM321.65-1.71L321.65-1.71Q318.99 0.49 316.23 0.49L316.23 0.49Q313.77 0.49 313.2-0.15L313.2-0.15Q313.74-0.81 313.79-2.12 313.84-3.44 313.84-4.59L313.84-4.59 313.84-11.38Q313.84-12.45 313.38-12.94L313.38-12.94Q312.72-13.7 310.86-14.6L310.86-14.6Q312.57-15.38 313.03-15.84L313.03-15.84Q313.84-16.65 313.84-17.8L313.84-17.8 313.84-31.62Q313.84-34.4 311.57-34.4L311.57-34.4Q310.74-34.4 310.2-33.98L310.2-33.98Q309.86-34.45 309.86-34.95 309.86-35.45 310.12-35.91 310.37-36.38 310.89-36.77L310.89-36.77Q312.06-37.6 313.82-37.6 315.57-37.6 316.57-37.38L316.57-37.38Q318.04-39.06 319.58-39.06L319.58-39.06Q322.09-39.06 322.09-36.43L322.09-36.43 322.09-25.98Q323.97-27.86 327.12-28.59L327.12-28.59Q328.07-28.81 329.59-28.81 331.1-28.81 332.76-28.37 334.42-27.93 335.64-26.81L335.64-26.81Q338.08-24.56 338.64-18.8L338.64-18.8Q338.89-15.8 341.62-14.55L341.62-14.55Q339.89-13.7 339.43-13.11L339.43-13.11Q338.79-12.28 338.64-11.13L338.64-11.13Q337.94-5.25 335.62-2.44L335.62-2.44Q333.08 0.61 328.27 0.61L328.27 0.61Q325.8 0.61 323.19-0.73L323.19-0.73Q322.34-1.15 321.65-1.71ZM319.75-6.47L319.75-30.52Q318.75-30.05 318.53-28.76L318.53-28.76Q318.26-27.15 318.26-23.44L318.26-23.44 318.26-19.68 318.26-18.9Q318.28-17.58 318.31-15.32 318.33-13.06 318.36-11.84L318.36-11.84Q318.41-9.2 318.5-8.5 318.6-7.79 318.95-7.21 319.31-6.64 319.75-6.47L319.75-6.47ZM322.09-19.51L322.09-7.74Q322.09-5.76 323.43-4.35L323.43-4.35Q324.7-2.95 326.32-2.95L326.32-2.95Q330.39-2.95 330.39-8.81L330.39-8.81 330.39-19.51Q330.39-24.1 328.27-24.95L328.27-24.95Q327.58-25.24 326.73-25.24L326.73-25.24Q323.61-25.24 322.51-22.24L322.51-22.24Q322.09-21.14 322.09-19.51L322.09-19.51ZM332.74-22.73L332.74-6.47Q333.96-6.93 334.08-9.67L334.08-9.67Q334.23-12.4 334.23-13.73 334.23-15.06 334.21-15.95 334.2-16.85 334.18-17.8L334.18-17.8Q334.08-21.36 333.62-21.95 333.15-22.53 332.74-22.73L332.74-22.73ZM350.36-2.73Q348.82-4.3 347.93-6.45 347.04-8.59 346.85-10.13 346.65-11.67 346.52-12.11 346.38-12.55 346.06-12.94L346.06-12.94Q345.43-13.75 343.74-14.58L343.74-14.58Q345.87-15.53 346.45-17.63L346.45-17.63Q346.63-18.21 346.72-18.8L346.72-18.8Q347.36-23.17 350.95-26.11 354.54-29.05 359.32-29.05L359.32-29.05Q364.3-29.05 367.89-26.07L367.89-26.07Q371.38-23.17 372.02-18.8L372.02-18.8Q372.24-17.26 372.68-16.55L372.68-16.55Q373.51-15.26 374.99-14.58L374.99-14.58Q373.33-13.77 372.85-13.16L372.85-13.16Q372.19-12.3 372.02-11.13L372.02-11.13Q371.23-5.37 368.01-2.38 364.79 0.61 359.42 0.61L359.42 0.61Q353.66 0.61 350.36-2.73L350.36-2.73ZM363.52-19.51Q363.52-25.61 359.37-25.61 355.22-25.61 355.22-19.51L355.22-19.51 355.22-8.69Q355.22-2.83 359.35-2.83L359.35-2.83Q363.52-2.83 363.52-8.69L363.52-8.69 363.52-19.51ZM365.86-22.73L365.86-6.47Q367.08-6.93 367.21-9.67L367.21-9.67Q367.35-12.4 367.35-13.73 367.35-15.06 367.34-15.95 367.33-16.85 367.3-17.8L367.3-17.8Q367.21-21.36 366.74-21.95 366.28-22.53 365.86-22.73L365.86-22.73ZM351.24-6.47L351.24-6.47Q351.58-6.74 351.58-7.08L351.58-7.08Q351.58-7.62 351.36-8.45L351.36-8.45Q350.36-12.28 350.36-13.78 350.36-15.28 350.46-16.13 350.56-16.97 350.7-17.82L350.7-17.82Q351.02-19.48 351.36-20.75L351.36-20.75Q351.58-21.58 351.58-21.88L351.58-21.88Q351.58-22.46 351.24-22.73L351.24-22.73Q350.21-21.51 349.68-19.46 349.14-17.41 348.8-15.84L348.8-15.84Q348.68-15.19 347.36-14.58L347.36-14.58Q348.68-13.96 348.8-13.35L348.8-13.35Q349.7-9.23 350.29-8.11 350.87-6.98 351.24-6.47ZM401.26 0.49L401.26 0.49Q397.82 0.49 397.55-4.27L397.55-4.27Q396.31-2.03 394.19-0.71 392.08 0.61 389.65 0.61 387.22 0.61 385.71-0.05 384.2-0.71 383.2-1.95L383.2-1.95Q381.24-4.39 381.24-8.89L381.24-8.89 381.24-10.4Q381.24-13.23 378.26-14.6L378.26-14.6Q380.02-15.45 380.51-16.04L380.51-16.04Q381.24-16.94 381.24-18.07L381.24-18.07 381.24-21.36Q381.24-23.44 379.83-23.61L379.83-23.61Q379.41-23.66 378.78-23.66 378.14-23.66 377.6-23.24L377.6-23.24Q377.26-23.71 377.26-24.21 377.26-24.71 377.52-25.33 377.78-25.95 378.31-26.51L378.31-26.51Q379.58-27.83 381.27-27.83 382.95-27.83 384.44-27.27L384.44-27.27Q385.51-28.81 386.98-28.81L386.98-28.81Q389.49-28.81 389.49-26.17L389.49-26.17 389.49-10.28Q389.49-5.64 391.64-4.71L391.64-4.71Q392.33-4.42 393.17-4.42 394.01-4.42 394.69-4.77 395.38-5.13 395.89-5.74L395.89-5.74Q396.84-6.93 397.11-9.01L397.11-9.01 397.11-21.36Q397.11-24.15 394.84-24.15L394.84-24.15Q394.01-24.15 393.47-23.73L393.47-23.73Q393.13-24.19 393.13-24.69 393.13-25.2 393.39-25.74 393.64-26.29 394.18-26.76L394.18-26.76Q395.38-27.83 397.1-27.83 398.82-27.83 400.31-27.27L400.31-27.27Q401.38-28.81 402.85-28.81L402.85-28.81Q405.36-28.81 405.36-26.17L405.36-26.17 405.36-18.07Q405.36-16.94 405.8-16.41L405.8-16.41Q406.58-15.45 408.34-14.6L408.34-14.6Q405.36-13.23 405.36-10.4L405.36-10.4 405.36-4.1Q405.83-2.22 407.39-2.22L407.39-2.22Q408.22-2.22 408.76-2.64L408.76-2.64Q409.1-2.17 409.1-1.48 409.1-0.78 408.4-0.15 407.71 0.49 406.23 0.49 404.75 0.49 403.43-0.29L403.43-0.29Q402.46 0.49 401.26 0.49ZM399.43-22.73L399.43-6.47Q400.85-7.03 400.92-11.87L400.92-11.87Q400.92-12.89 400.92-14.21 400.92-15.53 400.91-16.47 400.9-17.41 400.87-18.26L400.87-18.26Q400.77-21.34 400.31-21.94 399.85-22.53 399.43-22.73L399.43-22.73ZM384.9-11.38L384.83-14.6 384.9-17.82Q384.9-20 384.76-20.7L384.76-20.7Q384.34-22.56 383.59-22.73L383.59-22.73 383.59-21.14Q383.59-17.02 383.4-16.3 383.22-15.58 382.82-15.22 382.41-14.87 381.63-14.6L381.63-14.6Q383.1-14.09 383.29-13.35L383.29-13.35Q383.59-12.18 383.59-8.06L383.59-8.06 383.59-6.47Q384.32-6.64 384.78-8.64L384.78-8.64Q384.9-9.2 384.9-11.38L384.9-11.38ZM416.86-0.29L416.86-0.29Q415.74 0.49 414.3 0.49 412.86 0.49 412.21-0.18 411.56-0.85 411.56-1.46L411.56-1.46Q411.56-2.27 411.83-2.64L411.83-2.64Q412.37-2.22 413.2-2.22L413.2-2.22Q414.76-2.22 415.22-3.74L415.22-3.74 415.22-11.33Q415.22-12.4 414.76-12.89L414.76-12.89Q414.05-13.7 412.25-14.58L412.25-14.58Q413.95-15.36 414.42-15.82L414.42-15.82Q415.22-16.63 415.22-17.8L415.22-17.8 415.22-21.36Q415.22-23.44 413.81-23.61L413.81-23.61Q413.39-23.66 412.76-23.66 412.12-23.66 411.59-23.24L411.59-23.24Q411.24-23.71 411.24-24.21 411.24-24.71 411.5-25.33 411.76-25.95 412.27-26.51L412.27-26.51Q413.56-27.83 415.26-27.83 416.96-27.83 418.08-27.29L418.08-27.29Q419.42-28.81 420.81-28.81 422.21-28.81 422.74-28.16 423.28-27.51 423.28-26.17L423.28-26.17 423.28-23.88Q424.55-26.15 426.75-27.48 428.94-28.81 431.41-28.81 433.88-28.81 435.38-28.16 436.88-27.51 437.86-26.32L437.86-26.32Q439.76-23.95 439.76-19.43L439.76-19.43 439.76-17.82Q439.76-16.65 440.27-16.14L440.27-16.14Q441.03-15.36 442.74-14.58L442.74-14.58Q440.91-13.67 440.44-13.21L440.44-13.21Q439.76-12.45 439.76-11.38L439.76-11.38 439.76-3.74Q440.22-2.22 441.79-2.22L441.79-2.22Q442.62-2.22 443.15-2.64L443.15-2.64Q443.42-2.27 443.42-1.56 443.42-0.85 442.78-0.18 442.13 0.49 440.79 0.49 439.44 0.49 438.34-0.27L438.34-0.27Q437.37 0.49 436.06 0.49 434.76 0.49 433.73-0.24L433.73-0.24Q432.66 0.49 431.43 0.49 430.21 0.49 429.51-0.12 428.8-0.73 428.8-1.88L428.8-1.88Q428.8-2.42 429.16-2.73L429.16-2.73Q429.73-2.29 430.29-2.29L430.29-2.29Q431.36-2.29 431.83-3.49L431.83-3.49 431.83-18.04Q431.83-22.78 429.51-23.54L429.51-23.54Q428.75-23.78 427.87-23.78 426.99-23.78 426.23-23.43 425.48-23.07 424.87-22.44L424.87-22.44Q423.52-21.02 423.28-19.07L423.28-19.07 423.28-3.49Q423.74-2.29 424.82-2.29L424.82-2.29Q425.38-2.29 425.94-2.73L425.94-2.73Q426.31-2.42 426.31-1.57 426.31-0.73 425.6-0.12 424.89 0.49 423.73 0.49 422.57 0.49 421.62-0.24L421.62-0.24Q420.69 0.49 419.35 0.49 418.01 0.49 416.86-0.29ZM434.17-15.77L434.17-6.47Q435.39-6.93 435.51-9.67L435.51-9.67Q435.66-12.4 435.66-14.82 435.66-17.24 435.46-18.81 435.27-20.39 434.9-21.28 434.54-22.17 434.03-22.57 433.53-22.97 432.95-23.27L432.95-23.27Q433.88-21.07 434.02-19.26 434.17-17.46 434.17-15.77L434.17-15.77ZM418.97-11.87Q418.98-12.67 419-13.22 419.01-13.77 419.01-14.11 419.01-14.45 419.01-14.81 419.01-15.16 419-15.75 418.98-16.33 418.97-17.04 418.96-17.75 418.91-18.43L418.91-18.43Q418.84-20.12 418.69-20.75L418.69-20.75Q418.4-22.17 417.57-22.71L417.57-22.71 417.57-21.12Q417.57-17.02 417.38-16.3 417.2-15.58 416.8-15.21 416.4-14.84 415.61-14.58L415.61-14.58Q417.08-14.06 417.27-13.35L417.27-13.35Q417.57-12.18 417.57-8.08L417.57-8.08 417.57-6.49Q418.69-7.23 418.86-9.47L418.86-9.47Q418.96-11.06 418.97-11.87ZM468.91 0.49L468.91 0.49Q466.42 0.49 465.03-2.2L465.03-2.2Q463.29-0.2 460.39 0.44L460.39 0.44Q459.53 0.61 458.7 0.61L458.7 0.61Q453.58 0.61 450.74-2.64L450.74-2.64Q448.16-5.64 447.84-11.13L447.84-11.13Q447.79-12.21 447.35-12.77L447.35-12.77Q446.62-13.7 444.86-14.55L444.86-14.55Q447.74-15.87 447.86-18.6 447.98-21.34 448.83-23.28 449.67-25.22 451.09-26.46L451.09-26.46Q453.8-28.81 458.65-28.81L458.65-28.81Q461.32-28.81 463.27-27.44L463.27-27.44Q463.93-26.98 464.39-26.37L464.39-26.37 464.39-31.62Q464.39-34.4 462.12-34.4L462.12-34.4Q461.29-34.4 460.75-33.98L460.75-33.98Q460.41-34.45 460.41-34.95 460.41-35.45 460.67-35.91 460.92-36.38 461.46-36.77L461.46-36.77Q462.61-37.6 464.37-37.6 466.12-37.6 467.1-37.38L467.1-37.38Q468.44-39.06 470.13-39.06L470.13-39.06Q472.64-39.06 472.64-36.43L472.64-36.43 472.64-17.8Q472.64-15.94 475.62-14.58L475.62-14.58Q472.64-13.23 472.64-11.38L472.64-11.38 472.64-4.05Q473.35-2.22 474.67-2.22L474.67-2.22Q475.5-2.22 476.04-2.64L476.04-2.64Q476.38-2.17 476.38-1.48 476.38-0.78 475.68-0.15 474.99 0.49 473.6 0.49 472.2 0.49 471.01-0.29L471.01-0.29Q469.96 0.49 468.91 0.49ZM466.73-30.52L466.73-6.47Q467.96-6.93 468.05-9.38L468.05-9.38Q468.08-9.94 468.09-10.75 468.1-11.57 468.13-12.57 468.15-13.57 468.15-14.6L468.15-14.6 468.2-16.55Q468.2-17.5 468.21-18.23 468.22-18.95 468.22-19.36L468.22-19.36 468.22-19.73Q468.22-19.8 468.21-20.42 468.2-21.04 468.19-21.96 468.18-22.88 468.15-23.93L468.15-23.93 468.1-25.98Q468.05-28.22 467.93-28.83L467.93-28.83Q467.74-30.05 466.73-30.52L466.73-30.52ZM460-25.24L460-25.24Q456.09-25.24 456.09-19.51L456.09-19.51 456.09-8.81Q456.09-4.35 459.04-3.27L459.04-3.27Q459.87-2.95 460.69-2.95 461.51-2.95 462.18-3.28 462.85-3.61 463.34-4.15L463.34-4.15Q464.39-5.35 464.39-7.01L464.39-7.01 464.39-19.51Q464.39-24 461.66-24.95L461.66-24.95Q460.85-25.24 460-25.24ZM452.11-6.47L452.11-6.47Q452.45-6.74 452.45-7.08L452.45-7.08Q452.45-7.62 452.23-8.45L452.23-8.45Q451.23-12.28 451.23-13.76 451.23-15.23 451.33-16.09 451.43-16.94 451.6-17.77L451.6-17.77Q451.92-19.53 452.23-20.75L452.23-20.75Q452.45-21.58 452.45-21.88L452.45-21.88Q452.45-22.46 452.11-22.73L452.11-22.73Q451.09-21.51 450.55-19.43 450.01-17.36 449.67-15.8L449.67-15.8Q449.55-15.16 448.23-14.55L448.23-14.55Q449.55-13.94 449.67-13.31L449.67-13.31Q450.57-9.18 451.16-8.08 451.74-6.98 452.11-6.47Z" opacity="1" transform="matrix(1,0,0,1,0,0)" fill="black" class="slogan-text-1" id="SvgjsPath1065" stroke-width="5" stroke="black" stroke-linejoin="round"></path></svg></g></svg></g></svg></g></svg></g></svg></g></svg></g></svg></g></mask><g mask="url(#42606918-7e1f-47f2-9aac-5f13229044ee)"><g><path xmlns="http://www.w3.org/2000/svg" d="M100.287 60.833c-10.538 0-20.235 2.55-29.093 7.651-8.858 5.131-15.883 12.431-21.075 21.9-5.192 9.469-7.789 20.541-7.789 33.216v0c0 12.218 2.566 23.015 7.697 32.392 5.101 9.407 12.126 16.707 21.076 21.9 8.919 5.192 18.952 7.789 30.101 7.788v0c19.243 0 35.202-4.963 47.877-14.89v0-30.467h-50.397v-18.097h71.93v58.414c-7.941 7.33-17.944 13.287-30.009 17.869-12.065 4.582-25.199 6.872-39.401 6.872v0c-16.341 0-30.803-3.482-43.388-10.446-12.615-6.933-22.434-16.631-29.459-29.093-7.025-12.431-10.538-26.512-10.538-42.242v0c0-15.577 3.513-29.597 10.538-42.059 7.025-12.431 16.417-22.16 28.176-29.184 11.759-7.025 24.588-10.538 38.485-10.538v0c11.607 0 22.037 2.016 31.292 6.048 9.224 4.062 17.043 9.53 23.458 16.402v0-19.243h20.846v48.794l-14.89 1.145c-5.651-10.232-13.057-18.479-22.22-24.74-9.163-6.261-20.235-9.392-33.217-9.392zM353.19 183.16h24.511v19.014h-74.909v-19.014h25.657l-14.661-36.652h-67.807l-14.432 36.652h27.489v19.014h-74.45v-19.014h24.511l51.085-119.349h-23.595v-18.785h88.424v18.785h-23.366zM252.853 129.327h54.063l-26.115-65.516h-1.833z" fill="#000000" fill-rule="nonzero" stroke="none" stroke-width="1" stroke-linecap="butt" stroke-linejoin="miter" stroke-miterlimit="10" stroke-dasharray="" stroke-dashoffset="0" font-family="none" font-weight="none" font-size="none" text-anchor="none" style="mix-blend-mode: normal" data-fill-palette-color="tertiary"></path></g></g><g transform="matrix(1,0,0,1,17.033514495345997,37.08)"><svg viewBox="0 0 361.452971009308 173.04" height="173.04" width="361.452971009308"><g><svg viewBox="0 0 361.452971009308 173.04" height="173.04" width="361.452971009308"><g><svg viewBox="0 0 395.52 189.34906139763766" height="173.04" width="361.452971009308"><g><svg viewBox="0 0 395.52 189.34906139763766" height="189.34906139763766" width="395.52"><g id="textblocktransform"><svg viewBox="0 0 395.52 189.34906139763766" height="189.34906139763766" width="395.52" id="textblock"><g><svg viewBox="0 0 395.52 134.79724137931032" height="134.79724137931032" width="395.52"><g transform="matrix(1,0,0,1,0,0)"><svg width="395.52" viewBox="-2.199999988079071 -38 150.33999633789062 51.900001525878906" height="134.79724137931032" data-palette-color="#000000"><path d="M20.6-4.45Q23.8-4.45 25.78-2.85 27.75-1.25 27.75 1.65L27.75 1.65Q27.75 4.45 25.65 6.55 23.55 8.65 20 9.78 16.45 10.9 12.3 10.9L12.3 10.9Q7.25 10.9 4.03 9.03 0.8 7.15 0.8 3.9L0.8 3.9Q0.8 2.45 1.58 1.18 2.35-0.1 3.55-1.05L3.55-1.05Q2.55-1.8 2.02-2.83 1.5-3.85 1.5-5L1.5-5Q1.5-6.85 2.55-8.33 3.6-9.8 5.3-10.8L5.3-10.8Q3.6-12.9 3.6-15.6L3.6-15.6Q3.6-18.3 5.18-20.25 6.75-22.2 9.2-23.2 11.65-24.2 14.2-24.2L14.2-24.2Q17.15-24.2 19.65-23.1L19.65-23.1Q20.55-25.7 22.58-27.05 24.6-28.4 27.4-28.5L27.4-28.5 27.4-24.4Q25.45-24.3 24.13-23.75 22.8-23.2 21.8-21.85L21.8-21.85Q24.9-19.5 24.9-15.75L24.9-15.75Q24.9-13.05 23.35-11.1 21.8-9.15 19.33-8.15 16.85-7.15 14.2-7.15L14.2-7.15Q10.35-7.15 7.3-9.05L7.3-9.05Q5.8-7.7 5.8-6.15L5.8-6.15Q5.8-4.85 6.83-4.13 7.85-3.4 9.65-3.4L9.65-3.4Q11.35-3.4 14.75-3.9L14.75-3.9Q16.1-4.1 17.65-4.28 19.2-4.45 20.6-4.45L20.6-4.45ZM14.25-20.7Q11.8-20.7 10.1-19.28 8.4-17.85 8.4-15.6L8.4-15.6Q8.4-13.35 10.08-12 11.75-10.65 14.25-10.65L14.25-10.65Q16.85-10.65 18.48-12.05 20.1-13.45 20.1-15.75L20.1-15.75Q20.1-18 18.43-19.35 16.75-20.7 14.25-20.7L14.25-20.7ZM13 6.85Q15.65 6.85 18.03 6.25 20.4 5.65 21.83 4.53 23.25 3.4 23.25 1.95L23.25 1.95Q23.25-0.6 19.55-0.6L19.55-0.6Q18.55-0.6 17.35-0.45 16.15-0.3 15-0.1L15-0.1Q13.6 0.15 11.98 0.35 10.35 0.55 8.8 0.55L8.8 0.55Q7.45 0.55 6.05 0.2L6.05 0.2Q5.05 1.35 5.05 2.9L5.05 2.9Q5.05 4.75 7.15 5.8 9.25 6.85 13 6.85L13 6.85ZM48.85-24.2Q51.8-24.2 54.3-22.65 56.8-21.1 58.3-18.32 59.8-15.55 59.8-12L59.8-12Q59.8-8.35 58.17-5.45 56.55-2.55 53.75-0.93 50.95 0.7 47.55 0.7L47.55 0.7Q43.1 0.7 39.35-2.7L39.35-2.7 39.35 6.95 44.8 6.95 44.8 10.9 29.3 10.9 29.3 6.95 34.55 6.95 34.55-19.6 29.3-19.6 29.3-23.55 39.35-23.55 39.35-19Q41.3-21.4 43.8-22.8 46.3-24.2 48.85-24.2L48.85-24.2ZM46.5-3.5Q48.85-3.5 50.72-4.58 52.6-5.65 53.65-7.6 54.7-9.55 54.7-12.05L54.7-12.05Q54.7-15.6 52.67-17.82 50.65-20.05 47.5-20.05L47.5-20.05Q45.35-20.05 43.25-18.75 41.15-17.45 39.35-15.15L39.35-15.15 39.35-6.4Q42.95-3.5 46.5-3.5L46.5-3.5ZM81.59-5.35L83.3-1.65Q81.45-0.55 79.67 0.05 77.9 0.65 75.59 0.65L75.59 0.65Q71.75 0.65 69.47-1.78 67.2-4.2 67.2-8.7L67.2-8.7 67.2-19.6 61.95-19.6 61.95-23.55 67.2-23.55 67.2-30.1 72.09-30.1 72.09-23.55 79.9-23.55 79.9-19.6 72.09-19.6 72.09-8.65Q72.09-6.1 73.25-4.9 74.4-3.7 76.34-3.7L76.34-3.7Q77.75-3.7 79-4.13 80.25-4.55 81.59-5.35L81.59-5.35ZM126.44-4.15L127.44-0.6Q125.79 0.4 123.59 0.4L123.59 0.4Q121.74 0.4 120.47-0.68 119.19-1.75 118.69-3.75L118.69-3.75Q113.69 0.7 108.79 0.7L108.79 0.7Q105.34 0.7 102.94-1.25 100.54-3.2 100.54-6.7L100.54-6.7Q100.54-9.1 101.89-10.88 103.24-12.65 105.52-13.58 107.79-14.5 110.44-14.5L110.44-14.5Q112.69-14.5 114.59-14.08 116.49-13.65 118.49-12.85L118.49-12.85 118.49-15.05Q118.49-17.6 116.79-18.8 115.09-20 112.34-20L112.34-20Q108.44-20 102.94-17.85L102.94-17.85 101.94-21.65Q107.84-24.15 112.94-24.15L112.94-24.15Q117.79-24.15 120.47-21.78 123.14-19.4 123.14-14.85L123.14-14.85 123.14-6.2Q123.14-3.75 124.89-3.75L124.89-3.75Q125.64-3.75 126.44-4.15L126.44-4.15ZM105.39-6.95Q105.39-5.25 106.74-4.33 108.09-3.4 110.04-3.4L110.04-3.4Q111.74-3.4 113.94-4.3 116.14-5.2 118.49-6.95L118.49-6.95 118.49-9.6Q115.09-10.8 111.29-10.9L111.29-10.9Q108.84-10.9 107.12-9.88 105.39-8.85 105.39-6.95L105.39-6.95ZM136.79-28.9Q135.19-28.9 134.09-29.75 132.99-30.6 132.99-31.9L132.99-31.9Q132.99-33.25 134.09-34.13 135.19-35 136.79-35L136.79-35Q138.49-35 139.59-34.13 140.69-33.25 140.69-31.9L140.69-31.9Q140.69-30.6 139.59-29.75 138.49-28.9 136.79-28.9L136.79-28.9ZM139.79-3.95L145.14-3.95 145.14 0 129.59 0 129.59-3.95 134.89-3.95 134.89-19.6 129.59-19.6 129.59-23.55 139.79-23.55 139.79-3.95Z" opacity="1" transform="matrix(1,0,0,1,0,0)" fill="#000000" class="wordmark-text-0" data-fill-palette-color="primary" id="text-0"></path></svg></g></svg></g><g transform="matrix(1,0,0,1,2.5,152.53515899586205)"><svg viewBox="0 0 390.52 36.81390240177562" height="36.81390240177562" width="390.52"><g transform="matrix(1,0,0,1,0,0)"><svg width="390.52" viewBox="-1.1699999570846558 -42.060001373291016 480.5500183105469 46.21000289916992" height="36.81390240177562" data-palette-color="#000000"><path d="M10.99 0.49L10.99 0.49Q9.38 0.49 8.13-0.29L8.13-0.29Q6.88 0.49 5.82 0.49 4.76 0.49 4.08 0.31 3.39 0.12 2.88-0.2L2.88-0.2Q1.83-0.83 1.83-1.78L1.83-1.78Q1.83-2.27 2.1-2.64L2.1-2.64Q2.64-2.22 3.47-2.22L3.47-2.22Q5.64-2.22 6.47-4.08L6.47-4.08 6.47-16.02Q6.47-17.14 6.01-17.68L6.01-17.68Q5.27-18.58 3.49-19.46L3.49-19.46Q5.15-20.21 5.64-20.8L5.64-20.8Q6.47-21.75 6.47-22.95L6.47-22.95 6.47-33.25Q5.64-35.13 3.47-35.13L3.47-35.13Q2.64-35.13 2.1-34.72L2.1-34.72Q1.83-35.08 1.83-35.56 1.83-36.04 2.11-36.45 2.39-36.87 2.88-37.16L2.88-37.16Q4-37.84 5.46-37.84 6.91-37.84 8.13-37.04L8.13-37.04Q9.4-37.84 10.96-37.84 12.52-37.84 13.79-37.04L13.79-37.04Q15.16-37.84 16.28-37.84 17.41-37.84 18.09-37.66 18.77-37.48 19.29-37.16L19.29-37.16Q20.34-36.52 20.34-35.57L20.34-35.57Q20.34-35.08 20.07-34.72L20.07-34.72Q19.53-35.13 18.63-35.13 17.72-35.13 16.81-34.66 15.89-34.18 15.45-33.23L15.45-33.23 15.45-22.95Q15.45-21.75 15.97-21.17L15.97-21.17Q16.77-20.21 18.43-19.46L18.43-19.46Q16.65-18.58 16.16-18.02L16.16-18.02Q15.45-17.14 15.45-16.02L15.45-16.02 15.45-5.35Q17.07-2.78 19.48-2.78L19.48-2.78Q25.46-2.78 27.17-7.86L27.17-7.86Q27.93-10.11 27.93-11.98 27.93-13.84 27.42-14.48L27.42-14.48Q27.98-14.94 28.58-14.94 29.17-14.94 29.69-14.7 30.2-14.45 30.62-13.96L30.62-13.96Q31.47-12.96 31.47-11.6 31.47-10.23 31.25-9.5L31.25-9.5Q32.37-8.57 32.37-6.88 32.37-5.2 31.42-4.15L31.42-4.15Q32.23-3.13 32.23-2.29 32.23-1.46 31.99-0.87 31.76-0.27 31.35 0.2L31.35 0.2Q30.42 1.15 29.13 1.15L29.13 1.15Q28.49 1.15 27.95 0.88L27.95 0.88Q28.05 0.34 28.05-0.2L28.05-0.2Q28.05-1.32 27.03-1.32L27.03-1.32Q26.27-1.32 24.93-0.71L24.93-0.71Q22.34 0.49 19.03 0.49 15.72 0.49 13.87-0.37L13.87-0.37Q12.6 0.49 10.99 0.49ZM8.81-9.64L8.81-6.47Q10.03-6.93 10.16-9.67L10.16-9.67Q10.3-12.4 10.3-17.24 10.3-22.07 10.29-23.67 10.28-25.27 10.25-26.25L10.25-26.25Q10.18-29.13 9.7-29.72 9.23-30.32 8.81-30.52L8.81-30.52Q8.81-22.02 8.52-20.85L8.52-20.85Q8.18-19.87 6.86-19.46L6.86-19.46Q8.33-18.95 8.52-18.21L8.52-18.21Q8.81-17.04 8.81-9.64L8.81-9.64ZM56.54-7.37L56.54-7.37Q57.08-8.4 58.52-8.4L58.52-8.4Q59.49-8.4 60.03-7.59L60.03-7.59Q60.47-6.96 60.47-6.04 60.47-5.13 60.01-4.2 59.54-3.27 58.74-2.51 57.93-1.76 56.89-1.17 55.86-0.59 54.69-0.2L54.69-0.2Q52.27 0.61 49.66 0.61 47.04 0.61 44.76-0.26 42.48-1.12 40.84-2.69L40.84-2.69Q37.64-5.76 36.94-11.13L36.94-11.13Q36.77-12.33 36.37-12.84L36.37-12.84Q35.64-13.75 33.96-14.58L33.96-14.58Q36.08-15.53 36.67-17.63L36.67-17.63Q36.84-18.21 36.94-18.8L36.94-18.8Q37.55-23.1 41.28-26.12L41.28-26.12Q44.89-29.05 49.36-29.05L49.36-29.05Q54-29.05 57.39-25.78L57.39-25.78Q60.91-22.41 60.91-17.5L60.91-17.5Q60.91-17.33 60.9-17.16 60.89-16.99 60.91-16.85L60.91-16.85Q60.96-16.53 61.3-16.48L61.3-16.48Q61.74-15.92 61.74-15.28L61.74-15.28Q61.74-13.82 60.18-13.55L60.18-13.55Q59.79-13.48 58.96-13.35L58.96-13.35 45.19-11.16 45.19-8.81Q45.19-5.98 46.9-4.32L46.9-4.32Q48.51-2.73 50.97-2.73L50.97-2.73Q53.59-2.73 55.17-3.81L55.17-3.81Q56.66-4.83 56.66-6.49L56.66-6.49Q56.66-6.88 56.54-7.37ZM45.19-14.11L52.27-15.26 52.27-22.09Q52.27-23.71 51.63-24.46L51.63-24.46Q50.51-25.76 49.41-25.76 48.31-25.76 47.58-25.43 46.85-25.1 46.31-24.39L46.31-24.39Q45.19-22.9 45.19-19.75L45.19-19.75 45.19-14.11ZM54.37-15.63L55.88-15.87 55.88-16.63Q55.88-21.17 55.12-22.12L55.12-22.12Q54.78-22.53 54.37-22.73L54.37-22.73 54.37-15.63ZM41.21-6.47L41.21-6.47Q41.55-6.74 41.55-7.08L41.55-7.08Q41.55-7.62 41.33-8.45L41.33-8.45Q40.33-12.28 40.33-13.78 40.33-15.28 40.43-16.13 40.52-16.97 40.7-17.82L40.7-17.82Q40.99-19.48 41.33-20.75L41.33-20.75Q41.55-21.58 41.55-21.88L41.55-21.88Q41.55-22.46 41.21-22.73L41.21-22.73Q40.18-21.51 39.65-19.46 39.11-17.41 38.77-15.84L38.77-15.84Q38.64-15.19 37.33-14.58L37.33-14.58Q38.64-13.96 38.77-13.35L38.77-13.35Q39.67-9.23 40.26-8.11 40.84-6.98 41.21-6.47ZM82-2.32L82-2.32Q79.78 0.61 75.34 0.61L75.34 0.61Q69.92 0.61 67.21-2.64L67.21-2.64Q66.04-4.03 65.6-5.74L65.6-5.74Q65.35-6.76 64.74-7.31 64.13-7.86 63.23-8.3L63.23-8.3Q64.99-9.11 65.74-11.33L65.74-11.33Q66.55-13.67 68.43-14.72L68.43-14.72Q70.45-15.82 72.9-15.88 75.34-15.94 76.51-16.04 77.68-16.14 78.58-16.36L78.58-16.36Q80.27-16.75 81.22-17.8L81.22-17.8 81.22-21.46Q81.22-23.88 80.23-25 79.24-26.12 77.23-26.12 75.21-26.12 74.25-25.38 73.29-24.63 73.29-23.39L73.29-23.39Q73.29-21.48 75.24-21.53L75.24-21.53Q74.85-19.63 73.19-19.63L73.19-19.63Q72.7-19.63 72.24-19.8L72.24-19.8 72.24-19.73Q72.24-19.09 72.82-18.92L72.82-18.92Q72.21-17.99 70.77-18.02 69.33-18.04 68.53-19.56L68.53-19.56Q68.16-19.46 67.68-19.46 67.21-19.46 66.63-19.78 66.06-20.09 65.72-20.65L65.72-20.65Q66.94-21.39 67.21-22.92L67.21-22.92Q67.5-24.8 70.21-26.73L70.21-26.73Q73.48-29.05 78.56-29.05L78.56-29.05Q86.98-29.05 88.84-23.88L88.84-23.88Q89.45-22.14 89.45-19.78L89.45-19.78 89.45-17.8Q89.45-16.6 90.05-15.84 90.64-15.09 92.08-14.6L92.08-14.6Q90.55-13.89 90.11-13.33L90.11-13.33Q89.45-12.48 89.45-11.38L89.45-11.38 89.45-4.05Q90.16-2.22 91.47-2.22L91.47-2.22Q92.3-2.22 92.84-2.64L92.84-2.64Q93.18-2.17 93.18-1.48 93.18-0.78 92.49-0.15 91.79 0.49 90.4 0.49 89.01 0.49 87.81-0.29L87.81-0.29Q86.76 0.49 85.94 0.49 85.13 0.49 84.53 0.33 83.93 0.17 83.42-0.17L83.42-0.17Q82.27-0.93 82-2.32ZM83.54-22.73L83.54-6.47Q84.96-7.03 85.03-11.87L85.03-11.87Q85.03-12.89 85.03-14.21 85.03-15.53 85.02-16.47 85-17.41 84.98-18.26L84.98-18.26Q84.88-21.34 84.42-21.94 83.95-22.53 83.54-22.73L83.54-22.73ZM74.53-8.2L74.53-8.2Q74.53-7.18 74.75-6.2 74.97-5.22 75.41-4.49L75.41-4.49Q76.39-2.95 78.17-2.95L78.17-2.95Q79.51-2.95 80.39-4.05L80.39-4.05Q81.22-5.13 81.22-6.81L81.22-6.81 81.22-14.77Q79.66-13.87 77.22-13.53L77.22-13.53Q74.53-13.11 74.53-8.2ZM70.87-2.71L70.87-2.71Q71.11-2.88 71.11-3.15L71.11-3.15Q71.11-3.52 70.77-4.17L70.77-4.17Q69.55-6.42 69.55-7.86 69.55-9.3 69.66-9.94 69.77-10.57 69.95-11.02 70.14-11.47 70.37-11.82 70.6-12.16 70.77-12.43L70.77-12.43Q71.09-12.99 71.09-13.2 71.09-13.4 70.87-13.55L70.87-13.55Q69.87-13.09 69.4-12.45L69.4-12.45Q68.57-11.33 68.18-9.55L68.18-9.55Q68.09-9.03 66.47-8.3L66.47-8.3Q68.04-7.59 68.18-7.06L68.18-7.06Q69.01-4.15 70.87-2.71ZM100.75-0.29L100.75-0.29Q99.63 0.49 98.19 0.49 96.75 0.49 96.1-0.18 95.45-0.85 95.45-1.46L95.45-1.46Q95.45-2.27 95.72-2.64L95.72-2.64Q96.26-2.22 97.09-2.22L97.09-2.22Q98.65-2.22 99.11-3.74L99.11-3.74 99.11-11.13Q99.11-12.26 98.67-12.79L98.67-12.79Q97.89-13.75 96.14-14.6L96.14-14.6Q99.11-15.97 99.11-18.8L99.11-18.8 99.11-21.36Q99.11-23.44 97.7-23.61L97.7-23.61Q97.28-23.66 96.65-23.66 96.01-23.66 95.48-23.24L95.48-23.24Q95.13-23.71 95.13-24.21 95.13-24.71 95.39-25.33 95.65-25.95 96.18-26.51L96.18-26.51Q97.45-27.83 99.15-27.83 100.85-27.83 101.97-27.29L101.97-27.29Q103.31-28.81 104.85-28.81L104.85-28.81Q107.24-28.81 107.24-26.17L107.24-26.17 107.24-22.83Q109.68-28.83 115.01-28.83L115.01-28.83Q117.4-28.83 118.89-27.37L118.89-27.37Q120.43-25.88 120.43-23.24L120.43-23.24 120.43-22.9Q120.43-22.73 120.38-22.2 120.33-21.68 120.41-21.14 120.5-20.61 120.7-20.26L120.7-20.26Q120.96-19.75 121.7-19.46L121.7-19.46Q121.53-18.8 120.9-18.27 120.28-17.75 119.52-17.75L119.52-17.75 119.06-17.75Q118.11-16.55 116.4-16.06L116.4-16.06Q115.91-15.92 115.34-15.92 114.76-15.92 114.34-16.17 113.91-16.43 113.86-16.72L113.86-16.72Q114.32-16.94 114.32-17.6L114.32-17.6 114.32-17.72Q114.13-17.68 113.98-17.68L113.98-17.68 113.74-17.68Q112.93-17.68 112.28-18.29 111.64-18.9 111.44-19.82L111.44-19.82Q112.76-19.78 113.74-20.8L113.74-20.8Q114.62-21.7 114.62-22.66L114.62-22.66Q114.62-24.9 112.66-24.9L112.66-24.9Q110.98-24.9 109.27-22.22L109.27-22.22Q107.66-19.75 107.24-17.11L107.24-17.11 107.24-3.91Q107.51-3.05 108.07-2.64 108.64-2.22 109.61-2.22 110.59-2.22 111.13-2.64L111.13-2.64Q111.39-2.27 111.39-1.56 111.39-0.85 110.75-0.18 110.1 0.49 108.57 0.49 107.05 0.49 105.66-0.34L105.66-0.34Q104.68 0.49 103.29 0.49 101.9 0.49 100.75-0.29ZM102.86-11.88Q102.87-12.7 102.89-13.26 102.9-13.82 102.9-14.16L102.9-14.16 102.9-14.82Q102.9-15.19 102.89-15.76 102.87-16.33 102.86-17.05 102.85-17.77 102.82-18.46L102.82-18.46Q102.68-21 102.28-21.72 101.87-22.44 101.46-22.71L101.46-22.71 101.46-21.12Q101.46-17.02 101.27-16.3 101.09-15.58 100.69-15.22 100.29-14.87 99.5-14.6L99.5-14.6Q100.97-14.09 101.16-13.35L101.16-13.35Q101.46-12.18 101.46-8.08L101.46-8.08 101.46-6.49Q102.58-7.23 102.73-9.47L102.73-9.47Q102.85-11.06 102.86-11.88ZM127.7-0.29L127.7-0.29Q126.58 0.49 125.14 0.49 123.7 0.49 123.05-0.18 122.4-0.85 122.4-1.46L122.4-1.46Q122.4-2.27 122.67-2.64L122.67-2.64Q123.21-2.22 124.04-2.22L124.04-2.22Q125.6-2.22 126.06-3.74L126.06-3.74 126.06-11.33Q126.06-12.4 125.6-12.89L125.6-12.89Q124.89-13.7 123.09-14.58L123.09-14.58Q124.79-15.36 125.26-15.82L125.26-15.82Q126.06-16.63 126.06-17.8L126.06-17.8 126.06-21.36Q126.06-23.44 124.65-23.61L124.65-23.61Q124.23-23.66 123.6-23.66 122.96-23.66 122.43-23.24L122.43-23.24Q122.08-23.71 122.08-24.21 122.08-24.71 122.34-25.33 122.6-25.95 123.11-26.51L123.11-26.51Q124.4-27.83 126.1-27.83 127.8-27.83 128.92-27.29L128.92-27.29Q130.26-28.81 131.66-28.81 133.05-28.81 133.58-28.16 134.12-27.51 134.12-26.17L134.12-26.17 134.12-23.88Q135.39-26.15 137.59-27.48 139.78-28.81 142.25-28.81 144.72-28.81 146.22-28.16 147.72-27.51 148.7-26.32L148.7-26.32Q150.6-23.95 150.6-19.43L150.6-19.43 150.6-17.82Q150.6-16.65 151.11-16.14L151.11-16.14Q151.87-15.36 153.58-14.58L153.58-14.58Q151.75-13.67 151.28-13.21L151.28-13.21Q150.6-12.45 150.6-11.38L150.6-11.38 150.6-3.74Q151.06-2.22 152.63-2.22L152.63-2.22Q153.46-2.22 153.99-2.64L153.99-2.64Q154.26-2.27 154.26-1.56 154.26-0.85 153.62-0.18 152.97 0.49 151.63 0.49 150.28 0.49 149.18-0.27L149.18-0.27Q148.21 0.49 146.9 0.49 145.6 0.49 144.57-0.24L144.57-0.24Q143.5 0.49 142.28 0.49 141.05 0.49 140.35-0.12 139.64-0.73 139.64-1.88L139.64-1.88Q139.64-2.42 140-2.73L140-2.73Q140.57-2.29 141.13-2.29L141.13-2.29Q142.2-2.29 142.67-3.49L142.67-3.49 142.67-18.04Q142.67-22.78 140.35-23.54L140.35-23.54Q139.59-23.78 138.71-23.78 137.83-23.78 137.07-23.43 136.32-23.07 135.71-22.44L135.71-22.44Q134.37-21.02 134.12-19.07L134.12-19.07 134.12-3.49Q134.58-2.29 135.66-2.29L135.66-2.29Q136.22-2.29 136.78-2.73L136.78-2.73Q137.15-2.42 137.15-1.57 137.15-0.73 136.44-0.12 135.73 0.49 134.57 0.49 133.41 0.49 132.46-0.24L132.46-0.24Q131.53 0.49 130.19 0.49 128.85 0.49 127.7-0.29ZM145.01-15.77L145.01-6.47Q146.23-6.93 146.35-9.67L146.35-9.67Q146.5-12.4 146.5-14.82 146.5-17.24 146.3-18.81 146.11-20.39 145.74-21.28 145.38-22.17 144.88-22.57 144.37-22.97 143.79-23.27L143.79-23.27Q144.72-21.07 144.86-19.26 145.01-17.46 145.01-15.77L145.01-15.77ZM129.81-11.87Q129.82-12.67 129.84-13.22 129.85-13.77 129.85-14.11 129.85-14.45 129.85-14.81 129.85-15.16 129.84-15.75 129.82-16.33 129.81-17.04 129.8-17.75 129.75-18.43L129.75-18.43Q129.68-20.12 129.53-20.75L129.53-20.75Q129.24-22.17 128.41-22.71L128.41-22.71 128.41-21.12Q128.41-17.02 128.22-16.3 128.04-15.58 127.64-15.21 127.24-14.84 126.45-14.58L126.45-14.58Q127.92-14.06 128.12-13.35L128.12-13.35Q128.41-12.18 128.41-8.08L128.41-8.08 128.41-6.49Q129.53-7.23 129.7-9.47L129.7-9.47Q129.8-11.06 129.81-11.87ZM186.17-2.32L186.17-2.32Q183.94 0.61 179.5 0.61L179.5 0.61Q174.08 0.61 171.37-2.64L171.37-2.64Q170.2-4.03 169.76-5.74L169.76-5.74Q169.52-6.76 168.91-7.31 168.3-7.86 167.39-8.3L167.39-8.3Q169.15-9.11 169.91-11.33L169.91-11.33Q170.71-13.67 172.59-14.72L172.59-14.72Q174.62-15.82 177.06-15.88 179.5-15.94 180.67-16.04 181.85-16.14 182.75-16.36L182.75-16.36Q184.43-16.75 185.39-17.8L185.39-17.8 185.39-21.46Q185.39-23.88 184.4-25 183.41-26.12 181.39-26.12 179.38-26.12 178.42-25.38 177.45-24.63 177.45-23.39L177.45-23.39Q177.45-21.48 179.4-21.53L179.4-21.53Q179.01-19.63 177.35-19.63L177.35-19.63Q176.86-19.63 176.4-19.8L176.4-19.8 176.4-19.73Q176.4-19.09 176.99-18.92L176.99-18.92Q176.38-17.99 174.94-18.02 173.5-18.04 172.69-19.56L172.69-19.56Q172.32-19.46 171.85-19.46 171.37-19.46 170.8-19.78 170.22-20.09 169.88-20.65L169.88-20.65Q171.1-21.39 171.37-22.92L171.37-22.92Q171.66-24.8 174.37-26.73L174.37-26.73Q177.65-29.05 182.72-29.05L182.72-29.05Q191.15-29.05 193-23.88L193-23.88Q193.61-22.14 193.61-19.78L193.61-19.78 193.61-17.8Q193.61-16.6 194.21-15.84 194.81-15.09 196.25-14.6L196.25-14.6Q194.71-13.89 194.27-13.33L194.27-13.33Q193.61-12.48 193.61-11.38L193.61-11.38 193.61-4.05Q194.32-2.22 195.64-2.22L195.64-2.22Q196.47-2.22 197.01-2.64L197.01-2.64Q197.35-2.17 197.35-1.48 197.35-0.78 196.65-0.15 195.96 0.49 194.57 0.49 193.17 0.49 191.98-0.29L191.98-0.29Q190.93 0.49 190.11 0.49 189.29 0.49 188.69 0.33 188.1 0.17 187.58-0.17L187.58-0.17Q186.44-0.93 186.17-2.32ZM187.7-22.73L187.7-6.47Q189.12-7.03 189.19-11.87L189.19-11.87Q189.19-12.89 189.19-14.21 189.19-15.53 189.18-16.47 189.17-17.41 189.15-18.26L189.15-18.26Q189.05-21.34 188.58-21.94 188.12-22.53 187.7-22.73L187.7-22.73ZM178.7-8.2L178.7-8.2Q178.7-7.18 178.92-6.2 179.14-5.22 179.57-4.49L179.57-4.49Q180.55-2.95 182.33-2.95L182.33-2.95Q183.68-2.95 184.56-4.05L184.56-4.05Q185.39-5.13 185.39-6.81L185.39-6.81 185.39-14.77Q183.82-13.87 181.38-13.53L181.38-13.53Q178.7-13.11 178.7-8.2ZM175.03-2.71L175.03-2.71Q175.28-2.88 175.28-3.15L175.28-3.15Q175.28-3.52 174.94-4.17L174.94-4.17Q173.72-6.42 173.72-7.86 173.72-9.3 173.83-9.94 173.94-10.57 174.12-11.02 174.3-11.47 174.53-11.82 174.77-12.16 174.94-12.43L174.94-12.43Q175.25-12.99 175.25-13.2 175.25-13.4 175.03-13.55L175.03-13.55Q174.03-13.09 173.57-12.45L173.57-12.45Q172.74-11.33 172.35-9.55L172.35-9.55Q172.25-9.03 170.64-8.3L170.64-8.3Q172.2-7.59 172.35-7.06L172.35-7.06Q173.18-4.15 175.03-2.71ZM204.99-0.29L204.99-0.29Q203.86 0.49 202.42 0.49 200.98 0.49 200.34-0.18 199.69-0.85 199.69-1.46L199.69-1.46Q199.69-2.27 199.96-2.64L199.96-2.64Q200.5-2.22 201.33-2.22L201.33-2.22Q202.89-2.22 203.35-3.74L203.35-3.74 203.35-11.33Q203.35-12.4 202.89-12.89L202.89-12.89Q202.18-13.7 200.37-14.58L200.37-14.58Q202.08-15.36 202.55-15.82L202.55-15.82Q203.35-16.63 203.35-17.8L203.35-17.8 203.35-21.36Q203.35-23.44 201.94-23.61L201.94-23.61Q201.52-23.66 200.89-23.66 200.25-23.66 199.71-23.24L199.71-23.24Q199.37-23.71 199.37-24.21 199.37-24.71 199.63-25.33 199.88-25.95 200.4-26.51L200.4-26.51Q201.69-27.83 203.39-27.83 205.09-27.83 206.21-27.29L206.21-27.29Q207.55-28.81 208.94-28.81 210.33-28.81 210.87-28.16 211.41-27.51 211.41-26.17L211.41-26.17 211.41-23.88Q212.68-26.15 214.88-27.48 217.07-28.81 219.54-28.81 222-28.81 223.51-28.16 225.01-27.51 225.98-26.32L225.98-26.32Q227.89-23.95 227.89-19.43L227.89-19.43 227.89-17.82Q227.89-16.65 228.4-16.14L228.4-16.14Q229.16-15.36 230.87-14.58L230.87-14.58Q229.04-13.67 228.57-13.21L228.57-13.21Q227.89-12.45 227.89-11.38L227.89-11.38 227.89-3.74Q228.35-2.22 229.91-2.22L229.91-2.22Q230.74-2.22 231.28-2.64L231.28-2.64Q231.55-2.27 231.55-1.56 231.55-0.85 230.9-0.18 230.26 0.49 228.91 0.49 227.57 0.49 226.47-0.27L226.47-0.27Q225.5 0.49 224.19 0.49 222.88 0.49 221.86-0.24L221.86-0.24Q220.78 0.49 219.56 0.49 218.34 0.49 217.63-0.12 216.93-0.73 216.93-1.88L216.93-1.88Q216.93-2.42 217.29-2.73L217.29-2.73Q217.85-2.29 218.42-2.29L218.42-2.29Q219.49-2.29 219.95-3.49L219.95-3.49 219.95-18.04Q219.95-22.78 217.63-23.54L217.63-23.54Q216.88-23.78 216-23.78 215.12-23.78 214.36-23.43 213.61-23.07 213-22.44L213-22.44Q211.65-21.02 211.41-19.07L211.41-19.07 211.41-3.49Q211.87-2.29 212.95-2.29L212.95-2.29Q213.51-2.29 214.07-2.73L214.07-2.73Q214.44-2.42 214.44-1.57 214.44-0.73 213.73-0.12 213.02 0.49 211.86 0.49 210.7 0.49 209.75-0.24L209.75-0.24Q208.82 0.49 207.48 0.49 206.13 0.49 204.99-0.29ZM222.3-15.77L222.3-6.47Q223.52-6.93 223.64-9.67L223.64-9.67Q223.79-12.4 223.79-14.82 223.79-17.24 223.59-18.81 223.4-20.39 223.03-21.28 222.66-22.17 222.16-22.57 221.66-22.97 221.08-23.27L221.08-23.27Q222-21.07 222.15-19.26 222.3-17.46 222.3-15.77L222.3-15.77ZM207.1-11.87Q207.11-12.67 207.12-13.22 207.14-13.77 207.14-14.11 207.14-14.45 207.14-14.81 207.14-15.16 207.12-15.75 207.11-16.33 207.1-17.04 207.09-17.75 207.04-18.43L207.04-18.43Q206.96-20.12 206.82-20.75L206.82-20.75Q206.53-22.17 205.7-22.71L205.7-22.71 205.7-21.12Q205.7-17.02 205.51-16.3 205.33-15.58 204.93-15.21 204.52-14.84 203.74-14.58L203.74-14.58Q205.21-14.06 205.4-13.35L205.4-13.35Q205.7-12.18 205.7-8.08L205.7-8.08 205.7-6.49Q206.82-7.23 206.99-9.47L206.99-9.47Q207.09-11.06 207.1-11.87ZM257.04 0.49L257.04 0.49Q254.55 0.49 253.15-2.2L253.15-2.2Q251.42-0.2 248.52 0.44L248.52 0.44Q247.66 0.61 246.83 0.61L246.83 0.61Q241.7 0.61 238.87-2.64L238.87-2.64Q236.28-5.64 235.97-11.13L235.97-11.13Q235.92-12.21 235.48-12.77L235.48-12.77Q234.75-13.7 232.99-14.55L232.99-14.55Q235.87-15.87 235.99-18.6 236.11-21.34 236.96-23.28 237.8-25.22 239.21-26.46L239.21-26.46Q241.92-28.81 246.78-28.81L246.78-28.81Q249.44-28.81 251.4-27.44L251.4-27.44Q252.06-26.98 252.52-26.37L252.52-26.37 252.52-31.62Q252.52-34.4 250.25-34.4L250.25-34.4Q249.42-34.4 248.88-33.98L248.88-33.98Q248.54-34.45 248.54-34.95 248.54-35.45 248.8-35.91 249.05-36.38 249.59-36.77L249.59-36.77Q250.74-37.6 252.49-37.6 254.25-37.6 255.23-37.38L255.23-37.38Q256.57-39.06 258.26-39.06L258.26-39.06Q260.77-39.06 260.77-36.43L260.77-36.43 260.77-17.8Q260.77-15.94 263.75-14.58L263.75-14.58Q260.77-13.23 260.77-11.38L260.77-11.38 260.77-4.05Q261.48-2.22 262.8-2.22L262.8-2.22Q263.63-2.22 264.16-2.64L264.16-2.64Q264.51-2.17 264.51-1.48 264.51-0.78 263.81-0.15 263.11 0.49 261.72 0.49 260.33 0.49 259.14-0.29L259.14-0.29Q258.09 0.49 257.04 0.49ZM254.86-30.52L254.86-6.47Q256.08-6.93 256.18-9.38L256.18-9.38Q256.21-9.94 256.22-10.75 256.23-11.57 256.25-12.57 256.28-13.57 256.28-14.6L256.28-14.6 256.33-16.55Q256.33-17.5 256.34-18.23 256.35-18.95 256.35-19.36L256.35-19.36 256.35-19.73Q256.35-19.8 256.34-20.42 256.33-21.04 256.32-21.96 256.3-22.88 256.28-23.93L256.28-23.93 256.23-25.98Q256.18-28.22 256.06-28.83L256.06-28.83Q255.86-30.05 254.86-30.52L254.86-30.52ZM248.12-25.24L248.12-25.24Q244.22-25.24 244.22-19.51L244.22-19.51 244.22-8.81Q244.22-4.35 247.17-3.27L247.17-3.27Q248-2.95 248.82-2.95 249.64-2.95 250.31-3.28 250.98-3.61 251.47-4.15L251.47-4.15Q252.52-5.35 252.52-7.01L252.52-7.01 252.52-19.51Q252.52-24 249.78-24.95L249.78-24.95Q248.98-25.24 248.12-25.24ZM240.24-6.47L240.24-6.47Q240.58-6.74 240.58-7.08L240.58-7.08Q240.58-7.62 240.36-8.45L240.36-8.45Q239.36-12.28 239.36-13.76 239.36-15.23 239.46-16.09 239.56-16.94 239.73-17.77L239.73-17.77Q240.04-19.53 240.36-20.75L240.36-20.75Q240.58-21.58 240.58-21.88L240.58-21.88Q240.58-22.46 240.24-22.73L240.24-22.73Q239.21-21.51 238.68-19.43 238.14-17.36 237.8-15.8L237.8-15.8Q237.68-15.16 236.36-14.55L236.36-14.55Q237.68-13.94 237.8-13.31L237.8-13.31Q238.7-9.18 239.29-8.08 239.87-6.98 240.24-6.47ZM296.8-2.32L296.8-2.32Q294.58 0.61 290.14 0.61L290.14 0.61Q284.72 0.61 282.01-2.64L282.01-2.64Q280.83-4.03 280.39-5.74L280.39-5.74Q280.15-6.76 279.54-7.31 278.93-7.86 278.03-8.3L278.03-8.3Q279.78-9.11 280.54-11.33L280.54-11.33Q281.35-13.67 283.23-14.72L283.23-14.72Q285.25-15.82 287.69-15.88 290.14-15.94 291.31-16.04 292.48-16.14 293.38-16.36L293.38-16.36Q295.07-16.75 296.02-17.8L296.02-17.8 296.02-21.46Q296.02-23.88 295.03-25 294.04-26.12 292.03-26.12 290.01-26.12 289.05-25.38 288.09-24.63 288.09-23.39L288.09-23.39Q288.09-21.48 290.04-21.53L290.04-21.53Q289.65-19.63 287.99-19.63L287.99-19.63Q287.5-19.63 287.04-19.8L287.04-19.8 287.04-19.73Q287.04-19.09 287.62-18.92L287.62-18.92Q287.01-17.99 285.57-18.02 284.13-18.04 283.32-19.56L283.32-19.56Q282.96-19.46 282.48-19.46 282.01-19.46 281.43-19.78 280.86-20.09 280.52-20.65L280.52-20.65Q281.74-21.39 282.01-22.92L282.01-22.92Q282.3-24.8 285.01-26.73L285.01-26.73Q288.28-29.05 293.36-29.05L293.36-29.05Q301.78-29.05 303.64-23.88L303.64-23.88Q304.25-22.14 304.25-19.78L304.25-19.78 304.25-17.8Q304.25-16.6 304.85-15.84 305.44-15.09 306.88-14.6L306.88-14.6Q305.35-13.89 304.91-13.33L304.91-13.33Q304.25-12.48 304.25-11.38L304.25-11.38 304.25-4.05Q304.96-2.22 306.27-2.22L306.27-2.22Q307.1-2.22 307.64-2.64L307.64-2.64Q307.98-2.17 307.98-1.48 307.98-0.78 307.29-0.15 306.59 0.49 305.2 0.49 303.81 0.49 302.61-0.29L302.61-0.29Q301.56 0.49 300.74 0.49 299.93 0.49 299.33 0.33 298.73 0.17 298.22-0.17L298.22-0.17Q297.07-0.93 296.8-2.32ZM298.34-22.73L298.34-6.47Q299.76-7.03 299.83-11.87L299.83-11.87Q299.83-12.89 299.83-14.21 299.83-15.53 299.82-16.47 299.8-17.41 299.78-18.26L299.78-18.26Q299.68-21.34 299.22-21.94 298.75-22.53 298.34-22.73L298.34-22.73ZM289.33-8.2L289.33-8.2Q289.33-7.18 289.55-6.2 289.77-5.22 290.21-4.49L290.21-4.49Q291.19-2.95 292.97-2.95L292.97-2.95Q294.31-2.95 295.19-4.05L295.19-4.05Q296.02-5.13 296.02-6.81L296.02-6.81 296.02-14.77Q294.46-13.87 292.02-13.53L292.02-13.53Q289.33-13.11 289.33-8.2ZM285.67-2.71L285.67-2.71Q285.91-2.88 285.91-3.15L285.91-3.15Q285.91-3.52 285.57-4.17L285.57-4.17Q284.35-6.42 284.35-7.86 284.35-9.3 284.46-9.94 284.57-10.57 284.75-11.02 284.94-11.47 285.17-11.82 285.4-12.16 285.57-12.43L285.57-12.43Q285.89-12.99 285.89-13.2 285.89-13.4 285.67-13.55L285.67-13.55Q284.67-13.09 284.2-12.45L284.2-12.45Q283.37-11.33 282.98-9.55L282.98-9.55Q282.89-9.03 281.27-8.3L281.27-8.3Q282.84-7.59 282.98-7.06L282.98-7.06Q283.81-4.15 285.67-2.71ZM321.65-1.71L321.65-1.71Q318.99 0.49 316.23 0.49L316.23 0.49Q313.77 0.49 313.2-0.15L313.2-0.15Q313.74-0.81 313.79-2.12 313.84-3.44 313.84-4.59L313.84-4.59 313.84-11.38Q313.84-12.45 313.38-12.94L313.38-12.94Q312.72-13.7 310.86-14.6L310.86-14.6Q312.57-15.38 313.03-15.84L313.03-15.84Q313.84-16.65 313.84-17.8L313.84-17.8 313.84-31.62Q313.84-34.4 311.57-34.4L311.57-34.4Q310.74-34.4 310.2-33.98L310.2-33.98Q309.86-34.45 309.86-34.95 309.86-35.45 310.12-35.91 310.37-36.38 310.89-36.77L310.89-36.77Q312.06-37.6 313.82-37.6 315.57-37.6 316.57-37.38L316.57-37.38Q318.04-39.06 319.58-39.06L319.58-39.06Q322.09-39.06 322.09-36.43L322.09-36.43 322.09-25.98Q323.97-27.86 327.12-28.59L327.12-28.59Q328.07-28.81 329.59-28.81 331.1-28.81 332.76-28.37 334.42-27.93 335.64-26.81L335.64-26.81Q338.08-24.56 338.64-18.8L338.64-18.8Q338.89-15.8 341.62-14.55L341.62-14.55Q339.89-13.7 339.43-13.11L339.43-13.11Q338.79-12.28 338.64-11.13L338.64-11.13Q337.94-5.25 335.62-2.44L335.62-2.44Q333.08 0.61 328.27 0.61L328.27 0.61Q325.8 0.61 323.19-0.73L323.19-0.73Q322.34-1.15 321.65-1.71ZM319.75-6.47L319.75-30.52Q318.75-30.05 318.53-28.76L318.53-28.76Q318.26-27.15 318.26-23.44L318.26-23.44 318.26-19.68 318.26-18.9Q318.28-17.58 318.31-15.32 318.33-13.06 318.36-11.84L318.36-11.84Q318.41-9.2 318.5-8.5 318.6-7.79 318.95-7.21 319.31-6.64 319.75-6.47L319.75-6.47ZM322.09-19.51L322.09-7.74Q322.09-5.76 323.43-4.35L323.43-4.35Q324.7-2.95 326.32-2.95L326.32-2.95Q330.39-2.95 330.39-8.81L330.39-8.81 330.39-19.51Q330.39-24.1 328.27-24.95L328.27-24.95Q327.58-25.24 326.73-25.24L326.73-25.24Q323.61-25.24 322.51-22.24L322.51-22.24Q322.09-21.14 322.09-19.51L322.09-19.51ZM332.74-22.73L332.74-6.47Q333.96-6.93 334.08-9.67L334.08-9.67Q334.23-12.4 334.23-13.73 334.23-15.06 334.21-15.95 334.2-16.85 334.18-17.8L334.18-17.8Q334.08-21.36 333.62-21.95 333.15-22.53 332.74-22.73L332.74-22.73ZM350.36-2.73Q348.82-4.3 347.93-6.45 347.04-8.59 346.85-10.13 346.65-11.67 346.52-12.11 346.38-12.55 346.06-12.94L346.06-12.94Q345.43-13.75 343.74-14.58L343.74-14.58Q345.87-15.53 346.45-17.63L346.45-17.63Q346.63-18.21 346.72-18.8L346.72-18.8Q347.36-23.17 350.95-26.11 354.54-29.05 359.32-29.05L359.32-29.05Q364.3-29.05 367.89-26.07L367.89-26.07Q371.38-23.17 372.02-18.8L372.02-18.8Q372.24-17.26 372.68-16.55L372.68-16.55Q373.51-15.26 374.99-14.58L374.99-14.58Q373.33-13.77 372.85-13.16L372.85-13.16Q372.19-12.3 372.02-11.13L372.02-11.13Q371.23-5.37 368.01-2.38 364.79 0.61 359.42 0.61L359.42 0.61Q353.66 0.61 350.36-2.73L350.36-2.73ZM363.52-19.51Q363.52-25.61 359.37-25.61 355.22-25.61 355.22-19.51L355.22-19.51 355.22-8.69Q355.22-2.83 359.35-2.83L359.35-2.83Q363.52-2.83 363.52-8.69L363.52-8.69 363.52-19.51ZM365.86-22.73L365.86-6.47Q367.08-6.93 367.21-9.67L367.21-9.67Q367.35-12.4 367.35-13.73 367.35-15.06 367.34-15.95 367.33-16.85 367.3-17.8L367.3-17.8Q367.21-21.36 366.74-21.95 366.28-22.53 365.86-22.73L365.86-22.73ZM351.24-6.47L351.24-6.47Q351.58-6.74 351.58-7.08L351.58-7.08Q351.58-7.62 351.36-8.45L351.36-8.45Q350.36-12.28 350.36-13.78 350.36-15.28 350.46-16.13 350.56-16.97 350.7-17.82L350.7-17.82Q351.02-19.48 351.36-20.75L351.36-20.75Q351.58-21.58 351.58-21.88L351.58-21.88Q351.58-22.46 351.24-22.73L351.24-22.73Q350.21-21.51 349.68-19.46 349.14-17.41 348.8-15.84L348.8-15.84Q348.68-15.19 347.36-14.58L347.36-14.58Q348.68-13.96 348.8-13.35L348.8-13.35Q349.7-9.23 350.29-8.11 350.87-6.98 351.24-6.47ZM401.26 0.49L401.26 0.49Q397.82 0.49 397.55-4.27L397.55-4.27Q396.31-2.03 394.19-0.71 392.08 0.61 389.65 0.61 387.22 0.61 385.71-0.05 384.2-0.71 383.2-1.95L383.2-1.95Q381.24-4.39 381.24-8.89L381.24-8.89 381.24-10.4Q381.24-13.23 378.26-14.6L378.26-14.6Q380.02-15.45 380.51-16.04L380.51-16.04Q381.24-16.94 381.24-18.07L381.24-18.07 381.24-21.36Q381.24-23.44 379.83-23.61L379.83-23.61Q379.41-23.66 378.78-23.66 378.14-23.66 377.6-23.24L377.6-23.24Q377.26-23.71 377.26-24.21 377.26-24.71 377.52-25.33 377.78-25.95 378.31-26.51L378.31-26.51Q379.58-27.83 381.27-27.83 382.95-27.83 384.44-27.27L384.44-27.27Q385.51-28.81 386.98-28.81L386.98-28.81Q389.49-28.81 389.49-26.17L389.49-26.17 389.49-10.28Q389.49-5.64 391.64-4.71L391.64-4.71Q392.33-4.42 393.17-4.42 394.01-4.42 394.69-4.77 395.38-5.13 395.89-5.74L395.89-5.74Q396.84-6.93 397.11-9.01L397.11-9.01 397.11-21.36Q397.11-24.15 394.84-24.15L394.84-24.15Q394.01-24.15 393.47-23.73L393.47-23.73Q393.13-24.19 393.13-24.69 393.13-25.2 393.39-25.74 393.64-26.29 394.18-26.76L394.18-26.76Q395.38-27.83 397.1-27.83 398.82-27.83 400.31-27.27L400.31-27.27Q401.38-28.81 402.85-28.81L402.85-28.81Q405.36-28.81 405.36-26.17L405.36-26.17 405.36-18.07Q405.36-16.94 405.8-16.41L405.8-16.41Q406.58-15.45 408.34-14.6L408.34-14.6Q405.36-13.23 405.36-10.4L405.36-10.4 405.36-4.1Q405.83-2.22 407.39-2.22L407.39-2.22Q408.22-2.22 408.76-2.64L408.76-2.64Q409.1-2.17 409.1-1.48 409.1-0.78 408.4-0.15 407.71 0.49 406.23 0.49 404.75 0.49 403.43-0.29L403.43-0.29Q402.46 0.49 401.26 0.49ZM399.43-22.73L399.43-6.47Q400.85-7.03 400.92-11.87L400.92-11.87Q400.92-12.89 400.92-14.21 400.92-15.53 400.91-16.47 400.9-17.41 400.87-18.26L400.87-18.26Q400.77-21.34 400.31-21.94 399.85-22.53 399.43-22.73L399.43-22.73ZM384.9-11.38L384.83-14.6 384.9-17.82Q384.9-20 384.76-20.7L384.76-20.7Q384.34-22.56 383.59-22.73L383.59-22.73 383.59-21.14Q383.59-17.02 383.4-16.3 383.22-15.58 382.82-15.22 382.41-14.87 381.63-14.6L381.63-14.6Q383.1-14.09 383.29-13.35L383.29-13.35Q383.59-12.18 383.59-8.06L383.59-8.06 383.59-6.47Q384.32-6.64 384.78-8.64L384.78-8.64Q384.9-9.2 384.9-11.38L384.9-11.38ZM416.86-0.29L416.86-0.29Q415.74 0.49 414.3 0.49 412.86 0.49 412.21-0.18 411.56-0.85 411.56-1.46L411.56-1.46Q411.56-2.27 411.83-2.64L411.83-2.64Q412.37-2.22 413.2-2.22L413.2-2.22Q414.76-2.22 415.22-3.74L415.22-3.74 415.22-11.33Q415.22-12.4 414.76-12.89L414.76-12.89Q414.05-13.7 412.25-14.58L412.25-14.58Q413.95-15.36 414.42-15.82L414.42-15.82Q415.22-16.63 415.22-17.8L415.22-17.8 415.22-21.36Q415.22-23.44 413.81-23.61L413.81-23.61Q413.39-23.66 412.76-23.66 412.12-23.66 411.59-23.24L411.59-23.24Q411.24-23.71 411.24-24.21 411.24-24.71 411.5-25.33 411.76-25.95 412.27-26.51L412.27-26.51Q413.56-27.83 415.26-27.83 416.96-27.83 418.08-27.29L418.08-27.29Q419.42-28.81 420.81-28.81 422.21-28.81 422.74-28.16 423.28-27.51 423.28-26.17L423.28-26.17 423.28-23.88Q424.55-26.15 426.75-27.48 428.94-28.81 431.41-28.81 433.88-28.81 435.38-28.16 436.88-27.51 437.86-26.32L437.86-26.32Q439.76-23.95 439.76-19.43L439.76-19.43 439.76-17.82Q439.76-16.65 440.27-16.14L440.27-16.14Q441.03-15.36 442.74-14.58L442.74-14.58Q440.91-13.67 440.44-13.21L440.44-13.21Q439.76-12.45 439.76-11.38L439.76-11.38 439.76-3.74Q440.22-2.22 441.79-2.22L441.79-2.22Q442.62-2.22 443.15-2.64L443.15-2.64Q443.42-2.27 443.42-1.56 443.42-0.85 442.78-0.18 442.13 0.49 440.79 0.49 439.44 0.49 438.34-0.27L438.34-0.27Q437.37 0.49 436.06 0.49 434.76 0.49 433.73-0.24L433.73-0.24Q432.66 0.49 431.43 0.49 430.21 0.49 429.51-0.12 428.8-0.73 428.8-1.88L428.8-1.88Q428.8-2.42 429.16-2.73L429.16-2.73Q429.73-2.29 430.29-2.29L430.29-2.29Q431.36-2.29 431.83-3.49L431.83-3.49 431.83-18.04Q431.83-22.78 429.51-23.54L429.51-23.54Q428.75-23.78 427.87-23.78 426.99-23.78 426.23-23.43 425.48-23.07 424.87-22.44L424.87-22.44Q423.52-21.02 423.28-19.07L423.28-19.07 423.28-3.49Q423.74-2.29 424.82-2.29L424.82-2.29Q425.38-2.29 425.94-2.73L425.94-2.73Q426.31-2.42 426.31-1.57 426.31-0.73 425.6-0.12 424.89 0.49 423.73 0.49 422.57 0.49 421.62-0.24L421.62-0.24Q420.69 0.49 419.35 0.49 418.01 0.49 416.86-0.29ZM434.17-15.77L434.17-6.47Q435.39-6.93 435.51-9.67L435.51-9.67Q435.66-12.4 435.66-14.82 435.66-17.24 435.46-18.81 435.27-20.39 434.9-21.28 434.54-22.17 434.03-22.57 433.53-22.97 432.95-23.27L432.95-23.27Q433.88-21.07 434.02-19.26 434.17-17.46 434.17-15.77L434.17-15.77ZM418.97-11.87Q418.98-12.67 419-13.22 419.01-13.77 419.01-14.11 419.01-14.45 419.01-14.81 419.01-15.16 419-15.75 418.98-16.33 418.97-17.04 418.96-17.75 418.91-18.43L418.91-18.43Q418.84-20.12 418.69-20.75L418.69-20.75Q418.4-22.17 417.57-22.71L417.57-22.71 417.57-21.12Q417.57-17.02 417.38-16.3 417.2-15.58 416.8-15.21 416.4-14.84 415.61-14.58L415.61-14.58Q417.08-14.06 417.27-13.35L417.27-13.35Q417.57-12.18 417.57-8.08L417.57-8.08 417.57-6.49Q418.69-7.23 418.86-9.47L418.86-9.47Q418.96-11.06 418.97-11.87ZM468.91 0.49L468.91 0.49Q466.42 0.49 465.03-2.2L465.03-2.2Q463.29-0.2 460.39 0.44L460.39 0.44Q459.53 0.61 458.7 0.61L458.7 0.61Q453.58 0.61 450.74-2.64L450.74-2.64Q448.16-5.64 447.84-11.13L447.84-11.13Q447.79-12.21 447.35-12.77L447.35-12.77Q446.62-13.7 444.86-14.55L444.86-14.55Q447.74-15.87 447.86-18.6 447.98-21.34 448.83-23.28 449.67-25.22 451.09-26.46L451.09-26.46Q453.8-28.81 458.65-28.81L458.65-28.81Q461.32-28.81 463.27-27.44L463.27-27.44Q463.93-26.98 464.39-26.37L464.39-26.37 464.39-31.62Q464.39-34.4 462.12-34.4L462.12-34.4Q461.29-34.4 460.75-33.98L460.75-33.98Q460.41-34.45 460.41-34.95 460.41-35.45 460.67-35.91 460.92-36.38 461.46-36.77L461.46-36.77Q462.61-37.6 464.37-37.6 466.12-37.6 467.1-37.38L467.1-37.38Q468.44-39.06 470.13-39.06L470.13-39.06Q472.64-39.06 472.64-36.43L472.64-36.43 472.64-17.8Q472.64-15.94 475.62-14.58L475.62-14.58Q472.64-13.23 472.64-11.38L472.64-11.38 472.64-4.05Q473.35-2.22 474.67-2.22L474.67-2.22Q475.5-2.22 476.04-2.64L476.04-2.64Q476.38-2.17 476.38-1.48 476.38-0.78 475.68-0.15 474.99 0.49 473.6 0.49 472.2 0.49 471.01-0.29L471.01-0.29Q469.96 0.49 468.91 0.49ZM466.73-30.52L466.73-6.47Q467.96-6.93 468.05-9.38L468.05-9.38Q468.08-9.94 468.09-10.75 468.1-11.57 468.13-12.57 468.15-13.57 468.15-14.6L468.15-14.6 468.2-16.55Q468.2-17.5 468.21-18.23 468.22-18.95 468.22-19.36L468.22-19.36 468.22-19.73Q468.22-19.8 468.21-20.42 468.2-21.04 468.19-21.96 468.18-22.88 468.15-23.93L468.15-23.93 468.1-25.98Q468.05-28.22 467.93-28.83L467.93-28.83Q467.74-30.05 466.73-30.52L466.73-30.52ZM460-25.24L460-25.24Q456.09-25.24 456.09-19.51L456.09-19.51 456.09-8.81Q456.09-4.35 459.04-3.27L459.04-3.27Q459.87-2.95 460.69-2.95 461.51-2.95 462.18-3.28 462.85-3.61 463.34-4.15L463.34-4.15Q464.39-5.35 464.39-7.01L464.39-7.01 464.39-19.51Q464.39-24 461.66-24.95L461.66-24.95Q460.85-25.24 460-25.24ZM452.11-6.47L452.11-6.47Q452.45-6.74 452.45-7.08L452.45-7.08Q452.45-7.62 452.23-8.45L452.23-8.45Q451.23-12.28 451.23-13.76 451.23-15.23 451.33-16.09 451.43-16.94 451.6-17.77L451.6-17.77Q451.92-19.53 452.23-20.75L452.23-20.75Q452.45-21.58 452.45-21.88L452.45-21.88Q452.45-22.46 452.11-22.73L452.11-22.73Q451.09-21.51 450.55-19.43 450.01-17.36 449.67-15.8L449.67-15.8Q449.55-15.16 448.23-14.55L448.23-14.55Q449.55-13.94 449.67-13.31L449.67-13.31Q450.57-9.18 451.16-8.08 451.74-6.98 452.11-6.47Z" opacity="1" transform="matrix(1,0,0,1,0,0)" fill="#000000" class="slogan-text-1" data-fill-palette-color="secondary" id="text-1"></path></svg></g></svg></g></svg></g></svg></g></svg></g></svg></g></svg></g></svg></g><defs></defs></svg><rect width="395.52" height="247.2" fill="none" stroke="none" visibility="hidden"></rect></g></svg></g></svg>